<svg width="88" height="81" viewBox="0 0 88 81" fill="none" xmlns="http://www.w3.org/2000/svg">
<path d="M35.9087 2.67695C27.8516 7.33254 25.0085 17.5804 29.4994 25.7304C30.627 27.7769 31.2181 30.0768 31.2186 32.4134C31.2191 34.7278 30.6382 37.0059 29.5273 39.0364C27.1483 43.385 22.6198 46.1259 17.664 46.226C8.36047 46.4139 0.906163 54.0018 0.903992 63.3072C0.901791 72.741 8.55159 80.3938 17.9853 80.3886C23.9691 80.3853 29.5064 77.2375 32.6088 72.1208C33.8203 70.1228 35.519 68.4625 37.5422 67.2937C39.5463 66.136 41.8095 65.5 44.1233 65.4468C49.0791 65.3328 53.717 67.8844 56.2818 72.1263C61.0964 80.0891 71.3947 82.7506 79.4543 78.0999C87.6253 73.385 90.4278 62.9336 85.7064 54.7663C82.7117 49.5859 77.2172 46.3603 71.2348 46.2341C66.2781 46.1295 61.7499 43.3862 59.3714 39.0363C58.2611 37.0056 57.6776 34.7278 57.6804 32.4133C57.6831 30.0778 58.2777 27.7788 59.3996 25.7304C62.2742 20.4823 62.2305 14.1134 59.2424 8.92922C56.3383 3.89083 51.0644 0.682004 45.2554 0.407601C41.9868 0.253198 38.742 1.03981 35.9087 2.67695ZM44.5794 5.20157C48.9042 5.247 52.9028 7.57279 55.0756 11.3361C58.4585 17.1955 56.4438 24.7144 50.5844 28.0973C44.725 31.4802 37.2061 29.4655 33.8232 23.6061C30.4403 17.7467 32.455 10.2278 38.3144 6.84492C40.0946 5.8171 42.1047 5.2529 44.1598 5.20439C44.2999 5.20109 44.4399 5.2001 44.5794 5.20157ZM44.5606 7.00688C44.4415 7.00563 44.3222 7.00638 44.2026 7.00923C42.4498 7.0506 40.7354 7.53172 39.217 8.40835C34.2026 11.3034 32.4915 17.689 35.3866 22.7035C38.2817 27.7179 44.6673 29.4289 49.6817 26.5339C54.6962 23.6388 56.4072 17.2532 53.5121 12.2388C51.6576 9.02663 48.2515 7.04542 44.5606 7.00688ZM44.326 12.2416C46.238 12.1965 48.0221 13.1987 48.9784 14.8551C50.4225 17.3564 49.5655 20.5548 47.0643 21.999C44.5629 23.4431 41.3645 22.5862 39.9203 20.0848C38.4762 17.5835 39.3332 14.3851 41.8345 12.9409C42.5933 12.5028 43.45 12.2623 44.326 12.2416ZM44.5794 35.5193C49.1675 35.5675 53.4094 38.0344 55.7145 42.0269C59.3036 48.2435 57.1665 56.2191 50.9499 59.8083C44.7333 63.3974 36.7579 61.2603 33.1688 55.0437C29.5796 48.8271 31.7165 40.8514 37.9331 37.2623C39.8217 36.1719 41.9542 35.5736 44.1344 35.5221C44.2831 35.5181 44.4314 35.5177 44.5794 35.5193ZM44.5606 37.3244C44.433 37.3229 44.3051 37.3244 44.1769 37.3269C42.2991 37.3712 40.4625 37.8865 38.8357 38.8257C33.4641 41.927 31.6309 48.7693 34.7322 54.141C37.8335 59.5127 44.6756 61.3461 50.0472 58.2448C55.4189 55.1435 57.2524 48.3011 54.151 42.9295C52.1642 39.4882 48.5148 37.3657 44.5606 37.3244ZM18.1153 51.0389C22.4401 51.0843 26.4388 53.4101 28.6115 57.1734C31.9944 63.0328 29.9797 70.5514 24.1203 73.9344C18.2609 77.3173 10.7421 75.3026 7.35915 69.4432C3.97624 63.5838 5.99092 56.0651 11.8503 52.6822C13.6306 51.6544 15.6407 51.0902 17.6957 51.0417C17.8359 51.0388 17.9758 51.0375 18.1153 51.0389ZM71.0436 51.0389C75.3684 51.0843 79.3669 53.4101 81.5396 57.1734C84.9225 63.0328 82.9078 70.5514 77.0484 73.9344C71.189 77.3173 63.6704 75.3026 60.2875 69.4432C56.9045 63.5838 58.9192 56.0651 64.7786 52.6822C66.5589 51.6544 68.569 51.0902 70.624 51.0417C70.7642 51.0388 70.9041 51.0375 71.0436 51.0389ZM18.0963 52.8442C17.9772 52.843 17.8579 52.8442 17.7383 52.8466C15.9855 52.888 14.2714 53.3691 12.753 54.2457C7.73853 57.1408 6.0275 63.5261 8.92257 68.5406C11.8177 73.555 18.2032 75.2661 23.2177 72.371C28.2321 69.4759 29.9432 63.0906 27.0481 58.0761C25.1936 54.864 21.7872 52.8827 18.0963 52.8442ZM71.0246 52.8442C70.9055 52.843 70.7862 52.8442 70.6666 52.8466C68.9138 52.888 67.1997 53.3691 65.6813 54.2457C60.6668 57.1408 58.9558 63.5261 61.8509 68.5406C64.746 73.555 71.1313 75.2661 76.1458 72.371C81.1602 69.4759 82.8712 63.0906 79.9762 58.0761C78.1217 54.864 74.7155 52.8827 71.0246 52.8442ZM17.8619 58.0789C19.7739 58.0338 21.5581 59.036 22.5144 60.6923C23.9585 63.1937 23.1015 66.3921 20.6002 67.8363C18.0988 69.2804 14.9004 68.4233 13.4563 65.9219C12.0122 63.4206 12.8692 60.2221 15.3705 58.778C16.1293 58.3399 16.986 58.0995 17.8619 58.0789ZM70.79 58.0789C72.7021 58.0336 74.4863 59.0358 75.4427 60.6921C76.8869 63.1936 76.0298 66.3922 73.5283 67.8363C71.0269 69.2804 67.8285 68.4233 66.3844 65.9219C64.9403 63.4205 65.7974 60.2221 68.2988 58.778C69.0575 58.3399 69.9141 58.0996 70.79 58.0789Z" fill="#938ED4"/>
</svg>
