<svg width="81" height="81" viewBox="0 0 81 81" fill="none" xmlns="http://www.w3.org/2000/svg">
<path d="M75.5752 48.7131L31.8036 4.94146L32.4875 4.25747C35.0668 1.6782 36.3564 0.388577 37.959 0.38855C39.5615 0.388577 40.8511 1.6782 43.4304 4.25747L76.2592 37.0862C78.8384 39.6655 80.128 40.9551 80.1281 42.5576C80.1281 44.1602 78.8384 45.4498 76.2592 48.0291L75.5752 48.7131Z" fill="#938ED4"/>
<path d="M52.5764 50.765C51.6891 50.7649 50.9264 50.7649 50.2567 50.778L50.2697 50.765L29.7518 30.247L29.7388 30.26C29.7518 29.5904 29.7518 28.8277 29.7518 27.9408V11.0969L69.4198 50.765L52.5764 50.765Z" fill="#938ED4"/>
<path fill-rule="evenodd" clip-rule="evenodd" d="M25.219 38.8833L5.13023 58.972C2.58081 61.5215 1.30623 62.796 0.717063 64.2182C-0.0681188 66.114 -0.0682532 68.2445 0.716955 70.1404C1.30623 71.5624 2.58081 72.837 5.13023 75.3864C7.67965 77.9358 8.95423 79.2104 10.3763 79.7997C12.2721 80.5848 14.4027 80.5848 16.2986 79.7997C17.7206 79.2104 18.9952 77.9358 21.5446 75.3864L41.6333 55.2977C42.6658 54.2652 43.4597 53.4713 44.1554 52.8577L27.659 36.3613C27.0453 37.0569 26.2514 37.8509 25.219 38.8833ZM31.8036 52.8167C32.9367 51.6835 32.9367 49.8462 31.8036 48.7131C30.6704 47.5799 28.8331 47.5799 27.7 48.7131L22.2285 54.1845C21.0954 55.3177 21.0954 57.155 22.2285 58.2881C23.3617 59.4212 25.199 59.4212 26.3321 58.2881L31.8036 52.8167Z" fill="#938ED4"/>
</svg>
