<svg width="84" height="83" viewBox="0 0 84 83" fill="none" xmlns="http://www.w3.org/2000/svg">
<path d="M20.3797 10.5535C17.0826 9.05006 13.6445 9.6968 11.234 11.6078C10.4769 12.2085 9.57481 13.0961 8.66287 14.1717L25.4554 14.1714C23.5346 12.4885 21.7317 11.1694 20.3797 10.5535Z" fill="#938ED4"/>
<path d="M36.7395 27.9668C36.2482 26.7085 35.305 25.1633 34.0953 23.5152L3.84224 23.5149C3.76403 23.9434 3.69995 24.3723 3.66938 24.7998C3.5077 27.1094 3.80215 29.1331 4.54912 30.958C5.51166 33.3146 7.01185 35.1782 7.01185 35.1782L9.47458 37.6409C9.47458 37.6409 14.6501 42.4438 20.9082 42.7432C26.3667 43.0041 32.791 39.0005 35.5071 36.2357C36.7053 35.0145 38.0425 31.3073 36.7395 27.9668Z" fill="#938ED4"/>
<path d="M29.296 17.8622L6.04371 17.8629C5.67565 18.4951 5.33421 19.1514 5.02957 19.8228L31.1002 19.8234C30.5156 19.1619 29.9112 18.505 29.296 17.8622Z" fill="#938ED4"/>
<path d="M55.3848 46.6121C52.0439 45.3088 48.3367 46.646 47.1162 47.8448C45.8993 49.0407 44.4425 50.9556 43.2144 53.1893L64.5673 53.188C61.3142 50.1892 57.8153 47.5605 55.3848 46.6121Z" fill="#938ED4"/>
<path d="M68.2689 56.8811L41.5555 56.8817C41.3281 57.5304 41.1365 58.186 40.9837 58.843L69.9899 58.8433C69.4602 58.2051 68.8828 57.5469 68.2689 56.8811Z" fill="#938ED4"/>
<path d="M71.7451 72.1182C73.6551 69.7074 74.3009 66.2683 72.7984 62.9715C72.734 62.8302 72.6617 62.6843 72.5828 62.5338L40.6149 62.5328C40.9094 67.9256 44.5253 72.4964 45.4796 73.6138C45.6236 73.6887 45.7037 73.7853 45.7277 73.8941L48.1727 76.3391C48.1727 76.3391 50.036 77.8389 52.3942 78.8031C54.2185 79.5488 56.2425 79.8442 58.5508 79.6812C63.9695 79.301 69.6117 74.8024 71.7451 72.1182Z" fill="#938ED4"/>
<path d="M64.8824 49.7771C58.0042 43.5253 49.2736 40.6975 45.7096 37.2893C42.0806 33.8193 41.1427 27.3828 33.2215 18.1162C23.5576 6.81375 12.6412 0 12.6412 0L8.94549 4.39703C8.94549 4.39703 10.3159 6.5824 8.77165 9.14405C6.62308 12.7083 1.31247 17.5405 0.85535 23.0414C0.320674 29.4703 2.55698 33.1933 5.42852 36.4106C8.23336 39.5493 15.3176 45.8533 23.1948 45.3808C26.1866 45.2013 29.4705 44.1783 32.3421 42.9184C35.6182 41.48 38.7513 39.5233 40.4335 39.7524C41.0497 39.8368 41.4602 40.4103 42.0162 40.9827C42.7819 41.7701 43.4553 42.4297 43.4237 43.4458C43.3491 45.9135 41.0234 49.2789 39.5525 52.9451C38.5899 55.3464 38.0809 58.192 37.9698 60.8591C37.6859 67.7274 44.4691 75.7705 47.2926 78.2747C50.4001 81.0286 54.719 83.2974 59.4298 82.6727C61.7227 82.3667 64.0181 81.4384 66.1138 80.2096C69.1417 78.4318 71.821 76.1034 74.0301 74.758C76.9641 72.969 78.6032 74.4044 78.6032 74.4044L83.3522 70.7103C83.3522 70.7103 76.2158 60.0779 64.8824 49.7771ZM20.9082 42.7432C14.6501 42.4438 9.47458 37.6409 9.47458 37.6409L7.01185 35.1782C7.01185 35.1782 5.51166 33.3146 4.54912 30.958C3.80215 29.1331 3.5077 27.1094 3.66938 24.7998C3.69995 24.3723 3.76403 23.9434 3.84224 23.5149C4.07129 22.2651 4.48668 21.0196 5.02957 19.8228C5.33421 19.1514 5.67565 18.4951 6.04371 17.8629C6.84129 16.4921 7.75717 15.2398 8.66287 14.1717C9.57481 13.0961 10.4769 12.2085 11.234 11.6078C13.6445 9.6968 17.0826 9.05006 20.3797 10.5535C21.7314 11.1697 23.5342 12.4882 25.4551 14.1704C26.716 15.2749 28.0266 16.5362 29.296 17.8622C29.9112 18.505 30.5156 19.1619 31.1002 19.8234C32.1949 21.0627 33.2156 22.3154 34.0953 23.5152C35.305 25.1633 36.2482 26.7085 36.7395 27.9668C38.0425 31.3073 36.7053 35.0145 35.5071 36.2357C32.791 39.0005 26.3667 43.0041 20.9082 42.7432ZM12.1121 3.69246C12.3211 3.3382 13.4681 3.81602 14.5745 4.74834C15.6781 5.67703 16.3616 6.65569 16.1588 7.03591C15.9643 7.39871 14.7162 6.82427 13.6974 5.97839C12.5844 5.05987 11.8644 4.1177 12.1121 3.69246ZM77.4537 69.7524C76.5073 68.6653 75.9499 67.617 76.2631 67.2381C76.525 66.9223 77.5796 67.5805 78.5211 68.6811C79.4593 69.7764 79.9739 70.851 79.713 71.1915C79.4633 71.5181 78.3242 70.7511 77.4537 69.7524ZM52.3942 78.8031C50.036 77.8389 48.1727 76.3391 48.1727 76.3391L45.7277 73.8941C45.7037 73.7853 45.6236 73.6887 45.4796 73.6138C44.5253 72.4964 40.9094 67.9256 40.6149 62.5328C40.6133 62.5029 40.6097 62.4736 40.608 62.4437C40.5518 61.2728 40.7017 60.0569 40.9837 58.843C41.1365 58.186 41.3281 57.5304 41.5555 56.8817C42.0041 55.6017 42.5759 54.3516 43.2144 53.1893C44.4425 50.9556 45.8993 49.0407 47.1162 47.8448C48.3367 46.646 52.0439 45.3088 55.3848 46.6121C57.8153 47.5605 61.3142 50.1892 64.5673 53.188C65.8686 54.3874 67.1299 55.6461 68.2689 56.8811C68.8828 57.5469 69.4602 58.2051 69.9899 58.8433C71.1214 60.2087 72.0294 61.4815 72.5828 62.5338C72.6617 62.6843 72.734 62.8302 72.7984 62.9715C74.3009 66.2683 73.6551 69.7074 71.7451 72.1182C69.6117 74.8024 63.9695 79.301 58.5508 79.6812C56.2425 79.8442 54.2185 79.5488 52.3942 78.8031Z" fill="#938ED4"/>
</svg>
