<svg width="638" height="107" viewBox="0 0 638 107" fill="none" xmlns="http://www.w3.org/2000/svg">
<mask id="path-1-outside-1_1_118" maskUnits="userSpaceOnUse" x="-2" y="0" width="645" height="91" fill="black">
<rect fill="white" x="-2" width="645" height="91"/>
<path d="M6.0306 83V15.1H42.1146V24.024H15.0516V40.902H33.0936L31.0566 49.923H15.0516V73.979H42.1146V83H6.0306ZM48.3734 83V15.1H57.3944L75.4364 60.399V15.1H84.4574V83H75.4364L57.3944 37.701V83H48.3734ZM103.811 83V24.121H90.3281V15.1H126.315V24.121H112.832V83H103.811ZM132.206 83V15.1H168.29V24.024H141.227V40.902H159.269L157.232 49.923H141.227V73.979H168.29V83H132.206ZM174.355 83V15.1H203.455C205.33 15.1 206.947 15.779 208.305 17.137C209.663 18.495 210.342 20.144 210.342 22.084V42.939C210.342 44.879 209.663 46.528 208.305 47.886C206.947 49.244 205.33 49.923 203.455 49.923H201.418L210.342 83H201.418L192.397 49.923H183.376V83H174.355ZM183.376 40.902H197.926C198.831 40.902 199.64 40.5787 200.351 39.932C201.062 39.2207 201.418 38.38 201.418 37.41V27.613C201.418 26.643 201.062 25.8347 200.351 25.188C199.64 24.4767 198.831 24.121 197.926 24.121H183.376V40.902ZM233.609 83V12.384L242.727 10.347V34.5H254.27L252.136 43.618H242.727V83H233.609ZM256.153 83V12.287L265.271 10.25V34.5H276.426C278.366 34.5 280.015 35.2113 281.373 36.634C282.731 37.992 283.41 39.641 283.41 41.581V83H274.292V47.11C274.292 46.14 273.937 45.3317 273.225 44.685C272.579 43.9737 271.77 43.618 270.8 43.618H265.271V83H256.153ZM295.347 83C293.407 83 291.725 82.321 290.303 80.963C288.945 79.5403 288.266 77.859 288.266 75.919V41.484C288.266 39.544 288.945 37.895 290.303 36.537C291.725 35.179 293.407 34.5 295.347 34.5H308.539C310.543 34.5 312.225 35.179 313.583 36.537C314.941 37.895 315.62 39.544 315.62 41.484V56.228C315.62 58.168 314.941 59.8493 313.583 61.272C312.225 62.63 310.543 63.309 308.539 63.309H297.384V70.39C297.384 71.36 297.707 72.2007 298.354 72.912C299.065 73.5587 299.938 73.882 300.973 73.882H313.583L315.62 83H295.347ZM297.384 54.191H303.01C303.98 54.191 304.788 53.8677 305.435 53.221C306.146 52.5097 306.502 51.669 306.502 50.699V47.11C306.502 46.14 306.146 45.3317 305.435 44.685C304.788 43.9737 303.98 43.618 303.01 43.618H300.973C299.938 43.618 299.065 43.9737 298.354 44.685C297.707 45.3317 297.384 46.14 297.384 47.11V54.191ZM339.089 83V15.1H368.189C370.065 15.1 371.681 15.779 373.039 17.137C374.397 18.495 375.076 20.144 375.076 22.084V76.016C375.076 77.956 374.397 79.605 373.039 80.963C371.681 82.321 370.065 83 368.189 83H339.089ZM348.11 73.979H362.66C363.566 73.979 364.374 73.6557 365.085 73.009C365.797 72.2977 366.152 71.457 366.152 70.487V27.613C366.152 26.643 365.797 25.8347 365.085 25.188C364.374 24.4767 363.566 24.121 362.66 24.121H348.11V73.979ZM382.285 83V15.1H418.369V24.024H391.306V40.902H409.348L407.311 49.923H391.306V73.979H418.369V83H382.285ZM425.575 83V15.1H454.675C456.55 15.1 458.167 15.779 459.525 17.137C460.947 18.495 461.659 20.144 461.659 22.084V42.939C461.659 44.879 460.947 46.528 459.525 47.886C458.167 49.244 456.55 49.923 454.675 49.923H434.596V83H425.575ZM434.596 40.902H449.146C450.116 40.902 450.924 40.5787 451.571 39.932C452.282 39.2207 452.638 38.38 452.638 37.41V27.516C452.638 26.6107 452.282 25.8347 451.571 25.188C450.924 24.4767 450.116 24.121 449.146 24.121H434.596V40.902ZM481.012 83V24.121H467.529V15.1H503.516V24.121H490.033V83H481.012ZM508.366 83V15.1H517.387V40.902H535.429V15.1H544.353V83H535.429V49.923H517.387V83H508.366ZM558.351 83C556.411 83 554.762 82.321 553.404 80.963C552.046 79.605 551.367 77.956 551.367 76.016V60.981L560.388 63.018V70.487C560.388 71.457 560.711 72.2977 561.358 73.009C562.069 73.6557 562.878 73.979 563.783 73.979H574.841C575.811 73.979 576.619 73.6557 577.266 73.009C577.977 72.2977 578.333 71.457 578.333 70.487V53.415C578.333 52.445 577.977 51.6367 577.266 50.99C576.619 50.2787 575.811 49.923 574.841 49.923H558.351C556.411 49.923 554.762 49.244 553.404 47.886C552.046 46.528 551.367 44.879 551.367 42.939V22.084C551.367 20.144 552.046 18.495 553.404 17.137C554.762 15.779 556.411 15.1 558.351 15.1H580.37C582.31 15.1 583.959 15.779 585.317 17.137C586.675 18.495 587.354 20.144 587.354 22.084V32.56L578.333 30.426V27.613C578.333 26.643 577.977 25.8347 577.266 25.188C576.619 24.4767 575.811 24.121 574.841 24.121H563.783C562.878 24.121 562.069 24.4767 561.358 25.188C560.711 25.8347 560.388 26.643 560.388 27.613V37.41C560.388 38.38 560.711 39.2207 561.358 39.932C562.069 40.5787 562.878 40.902 563.783 40.902H580.37C582.31 40.902 583.959 41.581 585.317 42.939C586.675 44.297 587.354 45.946 587.354 47.886V76.016C587.354 77.956 586.675 79.605 585.317 80.963C583.959 82.321 582.31 83 580.37 83H558.351ZM591.296 83V73.882H600.414V83H591.296ZM608.157 83V73.882H617.275V83H608.157ZM625.019 83V73.882H634.137V83H625.019Z"/>
</mask>
<path d="M6.0306 83V15.1H42.1146V24.024H15.0516V40.902H33.0936L31.0566 49.923H15.0516V73.979H42.1146V83H6.0306ZM48.3734 83V15.1H57.3944L75.4364 60.399V15.1H84.4574V83H75.4364L57.3944 37.701V83H48.3734ZM103.811 83V24.121H90.3281V15.1H126.315V24.121H112.832V83H103.811ZM132.206 83V15.1H168.29V24.024H141.227V40.902H159.269L157.232 49.923H141.227V73.979H168.29V83H132.206ZM174.355 83V15.1H203.455C205.33 15.1 206.947 15.779 208.305 17.137C209.663 18.495 210.342 20.144 210.342 22.084V42.939C210.342 44.879 209.663 46.528 208.305 47.886C206.947 49.244 205.33 49.923 203.455 49.923H201.418L210.342 83H201.418L192.397 49.923H183.376V83H174.355ZM183.376 40.902H197.926C198.831 40.902 199.64 40.5787 200.351 39.932C201.062 39.2207 201.418 38.38 201.418 37.41V27.613C201.418 26.643 201.062 25.8347 200.351 25.188C199.64 24.4767 198.831 24.121 197.926 24.121H183.376V40.902ZM233.609 83V12.384L242.727 10.347V34.5H254.27L252.136 43.618H242.727V83H233.609ZM256.153 83V12.287L265.271 10.25V34.5H276.426C278.366 34.5 280.015 35.2113 281.373 36.634C282.731 37.992 283.41 39.641 283.41 41.581V83H274.292V47.11C274.292 46.14 273.937 45.3317 273.225 44.685C272.579 43.9737 271.77 43.618 270.8 43.618H265.271V83H256.153ZM295.347 83C293.407 83 291.725 82.321 290.303 80.963C288.945 79.5403 288.266 77.859 288.266 75.919V41.484C288.266 39.544 288.945 37.895 290.303 36.537C291.725 35.179 293.407 34.5 295.347 34.5H308.539C310.543 34.5 312.225 35.179 313.583 36.537C314.941 37.895 315.62 39.544 315.62 41.484V56.228C315.62 58.168 314.941 59.8493 313.583 61.272C312.225 62.63 310.543 63.309 308.539 63.309H297.384V70.39C297.384 71.36 297.707 72.2007 298.354 72.912C299.065 73.5587 299.938 73.882 300.973 73.882H313.583L315.62 83H295.347ZM297.384 54.191H303.01C303.98 54.191 304.788 53.8677 305.435 53.221C306.146 52.5097 306.502 51.669 306.502 50.699V47.11C306.502 46.14 306.146 45.3317 305.435 44.685C304.788 43.9737 303.98 43.618 303.01 43.618H300.973C299.938 43.618 299.065 43.9737 298.354 44.685C297.707 45.3317 297.384 46.14 297.384 47.11V54.191ZM339.089 83V15.1H368.189C370.065 15.1 371.681 15.779 373.039 17.137C374.397 18.495 375.076 20.144 375.076 22.084V76.016C375.076 77.956 374.397 79.605 373.039 80.963C371.681 82.321 370.065 83 368.189 83H339.089ZM348.11 73.979H362.66C363.566 73.979 364.374 73.6557 365.085 73.009C365.797 72.2977 366.152 71.457 366.152 70.487V27.613C366.152 26.643 365.797 25.8347 365.085 25.188C364.374 24.4767 363.566 24.121 362.66 24.121H348.11V73.979ZM382.285 83V15.1H418.369V24.024H391.306V40.902H409.348L407.311 49.923H391.306V73.979H418.369V83H382.285ZM425.575 83V15.1H454.675C456.55 15.1 458.167 15.779 459.525 17.137C460.947 18.495 461.659 20.144 461.659 22.084V42.939C461.659 44.879 460.947 46.528 459.525 47.886C458.167 49.244 456.55 49.923 454.675 49.923H434.596V83H425.575ZM434.596 40.902H449.146C450.116 40.902 450.924 40.5787 451.571 39.932C452.282 39.2207 452.638 38.38 452.638 37.41V27.516C452.638 26.6107 452.282 25.8347 451.571 25.188C450.924 24.4767 450.116 24.121 449.146 24.121H434.596V40.902ZM481.012 83V24.121H467.529V15.1H503.516V24.121H490.033V83H481.012ZM508.366 83V15.1H517.387V40.902H535.429V15.1H544.353V83H535.429V49.923H517.387V83H508.366ZM558.351 83C556.411 83 554.762 82.321 553.404 80.963C552.046 79.605 551.367 77.956 551.367 76.016V60.981L560.388 63.018V70.487C560.388 71.457 560.711 72.2977 561.358 73.009C562.069 73.6557 562.878 73.979 563.783 73.979H574.841C575.811 73.979 576.619 73.6557 577.266 73.009C577.977 72.2977 578.333 71.457 578.333 70.487V53.415C578.333 52.445 577.977 51.6367 577.266 50.99C576.619 50.2787 575.811 49.923 574.841 49.923H558.351C556.411 49.923 554.762 49.244 553.404 47.886C552.046 46.528 551.367 44.879 551.367 42.939V22.084C551.367 20.144 552.046 18.495 553.404 17.137C554.762 15.779 556.411 15.1 558.351 15.1H580.37C582.31 15.1 583.959 15.779 585.317 17.137C586.675 18.495 587.354 20.144 587.354 22.084V32.56L578.333 30.426V27.613C578.333 26.643 577.977 25.8347 577.266 25.188C576.619 24.4767 575.811 24.121 574.841 24.121H563.783C562.878 24.121 562.069 24.4767 561.358 25.188C560.711 25.8347 560.388 26.643 560.388 27.613V37.41C560.388 38.38 560.711 39.2207 561.358 39.932C562.069 40.5787 562.878 40.902 563.783 40.902H580.37C582.31 40.902 583.959 41.581 585.317 42.939C586.675 44.297 587.354 45.946 587.354 47.886V76.016C587.354 77.956 586.675 79.605 585.317 80.963C583.959 82.321 582.31 83 580.37 83H558.351ZM591.296 83V73.882H600.414V83H591.296ZM608.157 83V73.882H617.275V83H608.157ZM625.019 83V73.882H634.137V83H625.019Z" fill="#938ED4"/>
<path d="M6.0306 83H-1.9694V91H6.0306V83ZM6.0306 15.1V7.1H-1.9694V15.1H6.0306ZM42.1146 15.1H50.1146V7.1H42.1146V15.1ZM42.1146 24.024V32.024H50.1146V24.024H42.1146ZM15.0516 24.024V16.024H7.0516V24.024H15.0516ZM15.0516 40.902H7.0516V48.902H15.0516V40.902ZM33.0936 40.902L40.8971 42.6641L43.1015 32.902H33.0936V40.902ZM31.0566 49.923V57.923H37.4516L38.8601 51.6851L31.0566 49.923ZM15.0516 49.923V41.923H7.0516V49.923H15.0516ZM15.0516 73.979H7.0516V81.979H15.0516V73.979ZM42.1146 73.979H50.1146V65.979H42.1146V73.979ZM42.1146 83V91H50.1146V83H42.1146ZM14.0306 83V15.1H-1.9694V83H14.0306ZM6.0306 23.1H42.1146V7.1H6.0306V23.1ZM34.1146 15.1V24.024H50.1146V15.1H34.1146ZM42.1146 16.024H15.0516V32.024H42.1146V16.024ZM7.0516 24.024V40.902H23.0516V24.024H7.0516ZM15.0516 48.902H33.0936V32.902H15.0516V48.902ZM25.2901 39.1399L23.2531 48.1609L38.8601 51.6851L40.8971 42.6641L25.2901 39.1399ZM31.0566 41.923H15.0516V57.923H31.0566V41.923ZM7.0516 49.923V73.979H23.0516V49.923H7.0516ZM15.0516 81.979H42.1146V65.979H15.0516V81.979ZM34.1146 73.979V83H50.1146V73.979H34.1146ZM42.1146 75H6.0306V91H42.1146V75ZM48.3734 83H40.3734V91H48.3734V83ZM48.3734 15.1V7.1H40.3734V15.1H48.3734ZM57.3944 15.1L64.8266 12.1398L62.8193 7.1H57.3944V15.1ZM75.4364 60.399L68.0042 63.3591L83.4364 60.399H75.4364ZM75.4364 15.1V7.1H67.4364V15.1H75.4364ZM84.4574 15.1H92.4574V7.1H84.4574V15.1ZM84.4574 83V91H92.4574V83H84.4574ZM75.4364 83L68.0042 85.9601L70.0115 91H75.4364V83ZM57.3944 37.701L64.8266 34.7409L49.3944 37.701H57.3944ZM57.3944 83V91H65.3944V83H57.3944ZM56.3734 83V15.1H40.3734V83H56.3734ZM48.3734 23.1H57.3944V7.1H48.3734V23.1ZM49.9622 18.0601L68.0042 63.3591L82.8686 57.4389L64.8266 12.1398L49.9622 18.0601ZM83.4364 60.399V15.1H67.4364V60.399H83.4364ZM75.4364 23.1H84.4574V7.1H75.4364V23.1ZM76.4574 15.1V83H92.4574V15.1H76.4574ZM84.4574 75H75.4364V91H84.4574V75ZM82.8686 80.0399L64.8266 34.7409L49.9622 40.6611L68.0042 85.9601L82.8686 80.0399ZM49.3944 37.701V83H65.3944V37.701H49.3944ZM57.3944 75H48.3734V91H57.3944V75ZM103.811 83H95.8111V91H103.811V83ZM103.811 24.121H111.811V16.121H103.811V24.121ZM90.3281 24.121H82.3281V32.121H90.3281V24.121ZM90.3281 15.1V7.1H82.3281V15.1H90.3281ZM126.315 15.1H134.315V7.1H126.315V15.1ZM126.315 24.121V32.121H134.315V24.121H126.315ZM112.832 24.121V16.121H104.832V24.121H112.832ZM112.832 83V91H120.832V83H112.832ZM111.811 83V24.121H95.8111V83H111.811ZM103.811 16.121H90.3281V32.121H103.811V16.121ZM98.3281 24.121V15.1H82.3281V24.121H98.3281ZM90.3281 23.1H126.315V7.1H90.3281V23.1ZM118.315 15.1V24.121H134.315V15.1H118.315ZM126.315 16.121H112.832V32.121H126.315V16.121ZM104.832 24.121V83H120.832V24.121H104.832ZM112.832 75H103.811V91H112.832V75ZM132.206 83H124.206V91H132.206V83ZM132.206 15.1V7.1H124.206V15.1H132.206ZM168.29 15.1H176.29V7.1H168.29V15.1ZM168.29 24.024V32.024H176.29V24.024H168.29ZM141.227 24.024V16.024H133.227V24.024H141.227ZM141.227 40.902H133.227V48.902H141.227V40.902ZM159.269 40.902L167.073 42.6641L169.277 32.902H159.269V40.902ZM157.232 49.923V57.923H163.627L165.036 51.6851L157.232 49.923ZM141.227 49.923V41.923H133.227V49.923H141.227ZM141.227 73.979H133.227V81.979H141.227V73.979ZM168.29 73.979H176.29V65.979H168.29V73.979ZM168.29 83V91H176.29V83H168.29ZM140.206 83V15.1H124.206V83H140.206ZM132.206 23.1H168.29V7.1H132.206V23.1ZM160.29 15.1V24.024H176.29V15.1H160.29ZM168.29 16.024H141.227V32.024H168.29V16.024ZM133.227 24.024V40.902H149.227V24.024H133.227ZM141.227 48.902H159.269V32.902H141.227V48.902ZM151.466 39.1399L149.429 48.1609L165.036 51.6851L167.073 42.6641L151.466 39.1399ZM157.232 41.923H141.227V57.923H157.232V41.923ZM133.227 49.923V73.979H149.227V49.923H133.227ZM141.227 81.979H168.29V65.979H141.227V81.979ZM160.29 73.979V83H176.29V73.979H160.29ZM168.29 75H132.206V91H168.29V75ZM174.355 83H166.355V91H174.355V83ZM174.355 15.1V7.1H166.355V15.1H174.355ZM208.305 17.137L202.648 22.7938L202.648 22.7939L208.305 17.137ZM201.418 49.923V41.923H190.974L193.694 52.0068L201.418 49.923ZM210.342 83V91H220.787L218.066 80.9162L210.342 83ZM201.418 83L193.7 85.1049L195.308 91H201.418V83ZM192.397 49.923L200.115 47.8181L198.508 41.923H192.397V49.923ZM183.376 49.923V41.923H175.376V49.923H183.376ZM183.376 83V91H191.376V83H183.376ZM183.376 40.902H175.376V48.902H183.376V40.902ZM200.351 39.932L205.733 45.8515L205.873 45.7235L206.008 45.5889L200.351 39.932ZM200.351 25.188L194.694 30.8448L194.829 30.9795L194.97 31.1075L200.351 25.188ZM183.376 24.121V16.121H175.376V24.121H183.376ZM182.355 83V15.1H166.355V83H182.355ZM174.355 23.1H203.455V7.1H174.355V23.1ZM203.455 23.1C203.404 23.1 203.216 23.0856 202.976 22.9851C202.741 22.8862 202.633 22.7782 202.648 22.7938L213.962 11.4801C211.144 8.66233 207.509 7.1 203.455 7.1V23.1ZM202.648 22.7939C202.65 22.7953 202.619 22.764 202.573 22.6968C202.527 22.6285 202.478 22.5406 202.435 22.4382C202.343 22.2146 202.342 22.0665 202.342 22.084H218.342C218.342 18.0465 216.837 14.3555 213.962 11.4801L202.648 22.7939ZM202.342 22.084V42.939H218.342V22.084H202.342ZM202.342 42.939C202.342 42.9565 202.343 42.8084 202.435 42.5848C202.478 42.4823 202.527 42.3945 202.573 42.3261C202.619 42.2589 202.65 42.2277 202.648 42.2291L213.962 53.5429C216.837 50.6675 218.342 46.9765 218.342 42.939H202.342ZM202.648 42.2291C202.633 42.2448 202.741 42.1368 202.976 42.0379C203.216 41.9374 203.404 41.923 203.455 41.923V57.923C207.509 57.923 211.144 56.3607 213.962 53.5429L202.648 42.2291ZM203.455 41.923H201.418V57.923H203.455V41.923ZM193.694 52.0068L202.618 85.0838L218.066 80.9162L209.142 47.8391L193.694 52.0068ZM210.342 75H201.418V91H210.342V75ZM209.136 80.8951L200.115 47.8181L184.679 52.0279L193.7 85.1049L209.136 80.8951ZM192.397 41.923H183.376V57.923H192.397V41.923ZM175.376 49.923V83H191.376V49.923H175.376ZM183.376 75H174.355V91H183.376V75ZM183.376 48.902H197.926V32.902H183.376V48.902ZM197.926 48.902C200.952 48.902 203.648 47.7463 205.733 45.8515L194.97 34.0125C195.248 33.76 195.67 33.4599 196.24 33.2317C196.819 33.0003 197.402 32.902 197.926 32.902V48.902ZM206.008 45.5889C208.158 43.4394 209.418 40.588 209.418 37.41H193.418C193.418 36.8922 193.519 36.2776 193.784 35.6509C194.046 35.0299 194.396 34.5735 194.694 34.2751L206.008 45.5889ZM209.418 37.41V27.613H193.418V37.41H209.418ZM209.418 27.613C209.418 24.4122 208.129 21.4468 205.733 19.2685L194.97 31.1075C194.571 30.7449 194.141 30.2101 193.829 29.5012C193.518 28.7939 193.418 28.1274 193.418 27.613H209.418ZM206.008 19.5312C203.979 17.5022 201.198 16.121 197.926 16.121V32.121C197.298 32.121 196.627 31.9906 195.989 31.7103C195.369 31.437 194.943 31.0939 194.694 30.8448L206.008 19.5312ZM197.926 16.121H183.376V32.121H197.926V16.121ZM175.376 24.121V40.902H191.376V24.121H175.376ZM233.609 83H225.609V91H233.609V83ZM233.609 12.384L231.864 4.57646L225.609 5.97402V12.384H233.609ZM242.727 10.347H250.727V0.362561L240.982 2.53946L242.727 10.347ZM242.727 34.5H234.727V42.5H242.727V34.5ZM254.27 34.5L262.059 36.3231L264.358 26.5H254.27V34.5ZM252.136 43.618V51.618H258.479L259.925 45.4411L252.136 43.618ZM242.727 43.618V35.618H234.727V43.618H242.727ZM242.727 83V91H250.727V83H242.727ZM241.609 83V12.384H225.609V83H241.609ZM235.353 20.1915L244.471 18.1545L240.982 2.53946L231.864 4.57646L235.353 20.1915ZM234.727 10.347V34.5H250.727V10.347H234.727ZM242.727 42.5H254.27V26.5H242.727V42.5ZM246.48 32.6769L244.346 41.7949L259.925 45.4411L262.059 36.3231L246.48 32.6769ZM252.136 35.618H242.727V51.618H252.136V35.618ZM234.727 43.618V83H250.727V43.618H234.727ZM242.727 75H233.609V91H242.727V75ZM256.153 83H248.153V91H256.153V83ZM256.153 12.287L254.409 4.47946L248.153 5.87703V12.287H256.153ZM265.271 10.25H273.271V0.26555L263.527 2.44246L265.271 10.25ZM265.271 34.5H257.271V42.5H265.271V34.5ZM281.373 36.634L275.587 42.1578L275.651 42.2251L275.717 42.2909L281.373 36.634ZM283.41 83V91H291.41V83H283.41ZM274.292 83H266.292V91H274.292V83ZM273.225 44.685L267.306 50.0664L267.562 50.3483L267.844 50.6045L273.225 44.685ZM265.271 43.618V35.618H257.271V43.618H265.271ZM265.271 83V91H273.271V83H265.271ZM264.153 83V12.287H248.153V83H264.153ZM257.898 20.0945L267.016 18.0575L263.527 2.44246L254.409 4.47946L257.898 20.0945ZM257.271 10.25V34.5H273.271V10.25H257.271ZM265.271 42.5H276.426V26.5H265.271V42.5ZM276.426 42.5C276.395 42.5 276.204 42.4889 275.949 42.3792C275.698 42.2705 275.578 42.149 275.587 42.1578L287.16 31.1102C284.316 28.1308 280.587 26.5 276.426 26.5V42.5ZM275.717 42.2909C275.718 42.2923 275.687 42.261 275.641 42.1938C275.595 42.1255 275.546 42.0377 275.504 41.9352C275.412 41.7116 275.41 41.5635 275.41 41.581H291.41C291.41 37.5435 289.906 33.8525 287.03 30.9771L275.717 42.2909ZM275.41 41.581V83H291.41V41.581H275.41ZM283.41 75H274.292V91H283.41V75ZM282.292 83V47.11H266.292V83H282.292ZM282.292 47.11C282.292 43.9092 281.003 40.9438 278.607 38.7655L267.844 50.6045C267.445 50.2419 267.015 49.7071 266.703 48.9982C266.392 48.2909 266.292 47.6244 266.292 47.11H282.292ZM279.145 39.3036C276.967 36.9074 274.001 35.618 270.8 35.618V51.618C270.286 51.618 269.62 51.5185 268.912 51.2073C268.203 50.8953 267.669 50.4653 267.306 50.0664L279.145 39.3036ZM270.8 35.618H265.271V51.618H270.8V35.618ZM257.271 43.618V83H273.271V43.618H257.271ZM265.271 75H256.153V91H265.271V75ZM290.303 80.963L284.516 86.4868L284.644 86.6214L284.779 86.7498L290.303 80.963ZM290.303 36.537L284.779 30.7501L284.712 30.8144L284.646 30.8801L290.303 36.537ZM313.583 36.537L319.24 30.8801V30.8801L313.583 36.537ZM313.583 61.272L319.24 66.9289L319.305 66.8631L319.37 66.7958L313.583 61.272ZM297.384 63.309V55.309H289.384V63.309H297.384ZM298.354 72.912L292.434 78.2934L292.69 78.5753L292.972 78.8315L298.354 72.912ZM313.583 73.882L321.39 72.1378L319.993 65.882H313.583V73.882ZM315.62 83V91H325.604L323.427 81.2558L315.62 83ZM297.384 54.191H289.384V62.191H297.384V54.191ZM305.435 44.685L299.515 50.0664L299.771 50.3483L300.053 50.6045L305.435 44.685ZM298.354 44.685L304.011 50.3419V50.3419L298.354 44.685ZM295.347 75C295.33 75 295.356 74.9987 295.415 75.0097C295.474 75.0209 295.548 75.0411 295.626 75.0728C295.705 75.1045 295.767 75.1389 295.807 75.1658C295.847 75.192 295.853 75.2011 295.827 75.1762L284.779 86.7498C287.667 89.5065 291.318 91 295.347 91V75ZM296.09 75.4392C296.065 75.413 296.074 75.4184 296.1 75.4583C296.127 75.4992 296.161 75.5608 296.193 75.6393C296.225 75.7179 296.245 75.7916 296.256 75.8512C296.267 75.9096 296.266 75.9355 296.266 75.919H280.266C280.266 79.9478 281.759 83.5988 284.516 86.4868L296.09 75.4392ZM296.266 75.919V41.484H280.266V75.919H296.266ZM296.266 41.484C296.266 41.4665 296.265 41.6146 296.172 41.8382C296.13 41.9407 296.081 42.0285 296.035 42.0968C295.989 42.164 295.958 42.1953 295.96 42.1939L284.646 30.8801C281.771 33.7555 280.266 37.4465 280.266 41.484H296.266ZM295.827 42.3238C295.853 42.2989 295.847 42.308 295.807 42.3342C295.767 42.3611 295.705 42.3955 295.626 42.4272C295.548 42.4589 295.474 42.4791 295.415 42.4903C295.356 42.5012 295.33 42.5 295.347 42.5V26.5C291.318 26.5 287.667 27.9935 284.779 30.7501L295.827 42.3238ZM295.347 42.5H308.539V26.5H295.347V42.5ZM308.539 42.5C308.623 42.5 308.515 42.5108 308.308 42.4272C308.212 42.3886 308.124 42.341 308.05 42.2913C307.977 42.2423 307.936 42.204 307.926 42.1939L319.24 30.8801C316.31 27.9501 312.561 26.5 308.539 26.5V42.5ZM307.926 42.1939C307.927 42.1953 307.896 42.164 307.851 42.0968C307.804 42.0285 307.755 41.9407 307.713 41.8382C307.621 41.6146 307.62 41.4665 307.62 41.484H323.62C323.62 37.4465 322.115 33.7555 319.24 30.8801L307.926 42.1939ZM307.62 41.484V56.228H323.62V41.484H307.62ZM307.62 56.228C307.62 56.2445 307.618 56.2186 307.629 56.1602C307.641 56.1006 307.661 56.0269 307.693 55.9483C307.724 55.8698 307.759 55.8082 307.786 55.7673C307.812 55.7274 307.821 55.722 307.796 55.7482L319.37 66.7958C322.126 63.9078 323.62 60.2568 323.62 56.228H307.62ZM307.926 55.6151C307.936 55.605 307.977 55.5667 308.05 55.5177C308.124 55.468 308.212 55.4204 308.308 55.3818C308.515 55.2982 308.623 55.309 308.539 55.309V71.309C312.561 71.309 316.31 69.8589 319.24 66.9289L307.926 55.6151ZM308.539 55.309H297.384V71.309H308.539V55.309ZM289.384 63.309V70.39H305.384V63.309H289.384ZM289.384 70.39C289.384 73.3303 290.436 76.0948 292.434 78.2934L304.273 67.5306C304.571 67.8586 304.875 68.3105 305.093 68.8762C305.31 69.4406 305.384 69.9691 305.384 70.39H289.384ZM292.972 78.8315C295.274 80.9241 298.113 81.882 300.973 81.882V65.882C301.299 65.882 301.774 65.9351 302.32 66.1375C302.876 66.3434 303.358 66.6494 303.735 66.9925L292.972 78.8315ZM300.973 81.882H313.583V65.882H300.973V81.882ZM305.775 75.6262L307.812 84.7442L323.427 81.2558L321.39 72.1378L305.775 75.6262ZM315.62 75H295.347V91H315.62V75ZM297.384 62.191H303.01V46.191H297.384V62.191ZM303.01 62.191C305.959 62.191 308.847 61.1229 311.092 58.8779L299.778 47.5641C300.181 47.1608 300.72 46.7816 301.372 46.5207C302.015 46.2635 302.593 46.191 303.01 46.191V62.191ZM311.092 58.8779C313.241 56.7284 314.502 53.877 314.502 50.699H298.502C298.502 50.1812 298.602 49.5666 298.867 48.9399C299.13 48.3189 299.48 47.8625 299.778 47.5641L311.092 58.8779ZM314.502 50.699V47.11H298.502V50.699H314.502ZM314.502 47.11C314.502 43.9092 313.212 40.9438 310.816 38.7655L300.053 50.6045C299.654 50.2419 299.224 49.7071 298.912 48.9982C298.601 48.2909 298.502 47.6244 298.502 47.11H314.502ZM311.354 39.3036C309.176 36.9074 306.211 35.618 303.01 35.618V51.618C302.495 51.618 301.829 51.5185 301.122 51.2073C300.413 50.8953 299.878 50.4653 299.515 50.0664L311.354 39.3036ZM303.01 35.618H300.973V51.618H303.01V35.618ZM300.973 35.618C297.884 35.618 294.956 36.7693 292.697 39.0281L304.011 50.3419C303.664 50.6888 303.176 51.0425 302.56 51.2935C301.949 51.5426 301.389 51.618 300.973 51.618V35.618ZM292.697 39.0281C290.452 41.2732 289.384 44.1611 289.384 47.11H305.384C305.384 47.5267 305.311 48.1045 305.054 48.7474C304.793 49.3996 304.414 49.9385 304.011 50.3419L292.697 39.0281ZM289.384 47.11V54.191H305.384V47.11H289.384ZM339.089 83H331.089V91H339.089V83ZM339.089 15.1V7.1H331.089V15.1H339.089ZM373.039 17.137L367.382 22.7938V22.7939L373.039 17.137ZM348.11 73.979H340.11V81.979H348.11V73.979ZM365.085 73.009L370.467 78.9285L370.607 78.8005L370.742 78.6659L365.085 73.009ZM365.085 25.188L359.428 30.8448L359.563 30.9795L359.704 31.1075L365.085 25.188ZM348.11 24.121V16.121H340.11V24.121H348.11ZM347.089 83V15.1H331.089V83H347.089ZM339.089 23.1H368.189V7.1H339.089V23.1ZM368.189 23.1C368.138 23.1 367.95 23.0856 367.71 22.9851C367.475 22.8862 367.367 22.7782 367.382 22.7938L378.696 11.4801C375.878 8.66233 372.243 7.1 368.189 7.1V23.1ZM367.382 22.7939C367.384 22.7953 367.353 22.764 367.307 22.6968C367.261 22.6285 367.212 22.5406 367.17 22.4382C367.077 22.2146 367.076 22.0665 367.076 22.084H383.076C383.076 18.0465 381.571 14.3555 378.696 11.4801L367.382 22.7939ZM367.076 22.084V76.016H383.076V22.084H367.076ZM367.076 76.016C367.076 76.0335 367.077 75.8854 367.17 75.6618C367.212 75.5593 367.261 75.4715 367.307 75.4032C367.353 75.336 367.384 75.3047 367.382 75.3061L378.696 86.6199C381.571 83.7445 383.076 80.0535 383.076 76.016H367.076ZM367.382 75.3061C367.367 75.3218 367.475 75.2138 367.71 75.1149C367.95 75.0144 368.138 75 368.189 75V91C372.243 91 375.878 89.4377 378.696 86.6199L367.382 75.3061ZM368.189 75H339.089V91H368.189V75ZM348.11 81.979H362.66V65.979H348.11V81.979ZM362.66 81.979C365.686 81.979 368.382 80.8233 370.467 78.9285L359.704 67.0895C359.982 66.837 360.404 66.5369 360.974 66.3087C361.553 66.0773 362.136 65.979 362.66 65.979V81.979ZM370.742 78.6659C372.892 76.5164 374.152 73.665 374.152 70.487H358.152C358.152 69.9692 358.253 69.3546 358.518 68.7279C358.78 68.1069 359.13 67.6505 359.428 67.3521L370.742 78.6659ZM374.152 70.487V27.613H358.152V70.487H374.152ZM374.152 27.613C374.152 24.4122 372.863 21.4468 370.467 19.2685L359.704 31.1075C359.305 30.7449 358.875 30.2101 358.563 29.5012C358.252 28.7939 358.152 28.1274 358.152 27.613H374.152ZM370.742 19.5312C368.713 17.5022 365.932 16.121 362.66 16.121V32.121C362.032 32.121 361.361 31.9906 360.724 31.7103C360.103 31.437 359.677 31.0939 359.428 30.8448L370.742 19.5312ZM362.66 16.121H348.11V32.121H362.66V16.121ZM340.11 24.121V73.979H356.11V24.121H340.11ZM382.285 83H374.285V91H382.285V83ZM382.285 15.1V7.1H374.285V15.1H382.285ZM418.368 15.1H426.368V7.1H418.368V15.1ZM418.368 24.024V32.024H426.368V24.024H418.368ZM391.306 24.024V16.024H383.306V24.024H391.306ZM391.306 40.902H383.306V48.902H391.306V40.902ZM409.348 40.902L417.151 42.6641L419.355 32.902H409.348V40.902ZM407.311 49.923V57.923H413.705L415.114 51.6851L407.311 49.923ZM391.306 49.923V41.923H383.306V49.923H391.306ZM391.306 73.979H383.306V81.979H391.306V73.979ZM418.368 73.979H426.368V65.979H418.368V73.979ZM418.368 83V91H426.368V83H418.368ZM390.285 83V15.1H374.285V83H390.285ZM382.285 23.1H418.368V7.1H382.285V23.1ZM410.368 15.1V24.024H426.368V15.1H410.368ZM418.368 16.024H391.306V32.024H418.368V16.024ZM383.306 24.024V40.902H399.306V24.024H383.306ZM391.306 48.902H409.348V32.902H391.306V48.902ZM401.544 39.1399L399.507 48.1609L415.114 51.6851L417.151 42.6641L401.544 39.1399ZM407.311 41.923H391.306V57.923H407.311V41.923ZM383.306 49.923V73.979H399.306V49.923H383.306ZM391.306 81.979H418.368V65.979H391.306V81.979ZM410.368 73.979V83H426.368V73.979H410.368ZM418.368 75H382.285V91H418.368V75ZM425.575 83H417.575V91H425.575V83ZM425.575 15.1V7.1H417.575V15.1H425.575ZM459.525 17.137L453.868 22.7938L453.933 22.8596L454.001 22.9238L459.525 17.137ZM459.525 47.886L454.001 42.0992L453.933 42.1634L453.868 42.2291L459.525 47.886ZM434.596 49.923V41.923H426.596V49.923H434.596ZM434.596 83V91H442.596V83H434.596ZM434.596 40.902H426.596V48.902H434.596V40.902ZM451.571 39.932L445.914 34.2751V34.2752L451.571 39.932ZM451.571 25.188L445.651 30.5694L445.907 30.8513L446.189 31.1075L451.571 25.188ZM434.596 24.121V16.121H426.596V24.121H434.596ZM433.575 83V15.1H417.575V83H433.575ZM425.575 23.1H454.675V7.1H425.575V23.1ZM454.675 23.1C454.623 23.1 454.435 23.0856 454.196 22.9851C453.96 22.8862 453.852 22.7782 453.868 22.7938L465.181 11.4801C462.364 8.66233 458.728 7.1 454.675 7.1V23.1ZM454.001 22.9238C454.01 22.9323 453.888 22.8129 453.779 22.561C453.67 22.3067 453.659 22.1153 453.659 22.084H469.659C469.659 17.9238 468.028 14.1942 465.048 11.3502L454.001 22.9238ZM453.659 22.084V42.939H469.659V22.084H453.659ZM453.659 42.939C453.659 42.9076 453.67 42.7163 453.779 42.462C453.888 42.2101 454.01 42.0907 454.001 42.0992L465.048 53.6728C468.028 50.8288 469.659 47.0992 469.659 42.939H453.659ZM453.868 42.2291C453.852 42.2448 453.96 42.1368 454.196 42.0379C454.435 41.9374 454.623 41.923 454.675 41.923V57.923C458.728 57.923 462.364 56.3607 465.181 53.5429L453.868 42.2291ZM454.675 41.923H434.596V57.923H454.675V41.923ZM426.596 49.923V83H442.596V49.923H426.596ZM434.596 75H425.575V91H434.596V75ZM434.596 48.902H449.146V32.902H434.596V48.902ZM449.146 48.902C452.094 48.902 454.982 47.8339 457.227 45.5888L445.914 34.2752C446.317 33.8718 446.856 33.4926 447.508 33.2317C448.151 32.9745 448.729 32.902 449.146 32.902V48.902ZM457.227 45.5889C459.377 43.4394 460.638 40.588 460.638 37.41H444.638C444.638 36.8922 444.738 36.2776 445.003 35.6509C445.266 35.0299 445.615 34.5735 445.914 34.2751L457.227 45.5889ZM460.638 37.41V27.516H444.638V37.41H460.638ZM460.638 27.516C460.638 24.2042 459.215 21.3256 456.952 19.2685L446.189 31.1075C445.847 30.7966 445.423 30.2975 445.098 29.5882C444.768 28.8677 444.638 28.1427 444.638 27.516H460.638ZM457.49 19.8066C455.312 17.4104 452.346 16.121 449.146 16.121V32.121C448.631 32.121 447.965 32.0215 447.257 31.7103C446.548 31.3983 446.014 30.9683 445.651 30.5694L457.49 19.8066ZM449.146 16.121H434.596V32.121H449.146V16.121ZM426.596 24.121V40.902H442.596V24.121H426.596ZM481.012 83H473.012V91H481.012V83ZM481.012 24.121H489.012V16.121H481.012V24.121ZM467.529 24.121H459.529V32.121H467.529V24.121ZM467.529 15.1V7.1H459.529V15.1H467.529ZM503.516 15.1H511.516V7.1H503.516V15.1ZM503.516 24.121V32.121H511.516V24.121H503.516ZM490.033 24.121V16.121H482.033V24.121H490.033ZM490.033 83V91H498.033V83H490.033ZM489.012 83V24.121H473.012V83H489.012ZM481.012 16.121H467.529V32.121H481.012V16.121ZM475.529 24.121V15.1H459.529V24.121H475.529ZM467.529 23.1H503.516V7.1H467.529V23.1ZM495.516 15.1V24.121H511.516V15.1H495.516ZM503.516 16.121H490.033V32.121H503.516V16.121ZM482.033 24.121V83H498.033V24.121H482.033ZM490.033 75H481.012V91H490.033V75ZM508.366 83H500.366V91H508.366V83ZM508.366 15.1V7.1H500.366V15.1H508.366ZM517.387 15.1H525.387V7.1H517.387V15.1ZM517.387 40.902H509.387V48.902H517.387V40.902ZM535.429 40.902V48.902H543.429V40.902H535.429ZM535.429 15.1V7.1H527.429V15.1H535.429ZM544.353 15.1H552.353V7.1H544.353V15.1ZM544.353 83V91H552.353V83H544.353ZM535.429 83H527.429V91H535.429V83ZM535.429 49.923H543.429V41.923H535.429V49.923ZM517.387 49.923V41.923H509.387V49.923H517.387ZM517.387 83V91H525.387V83H517.387ZM516.366 83V15.1H500.366V83H516.366ZM508.366 23.1H517.387V7.1H508.366V23.1ZM509.387 15.1V40.902H525.387V15.1H509.387ZM517.387 48.902H535.429V32.902H517.387V48.902ZM543.429 40.902V15.1H527.429V40.902H543.429ZM535.429 23.1H544.353V7.1H535.429V23.1ZM536.353 15.1V83H552.353V15.1H536.353ZM544.353 75H535.429V91H544.353V75ZM543.429 83V49.923H527.429V83H543.429ZM535.429 41.923H517.387V57.923H535.429V41.923ZM509.387 49.923V83H525.387V49.923H509.387ZM517.387 75H508.366V91H517.387V75ZM553.404 80.963L547.747 86.6199V86.6199L553.404 80.963ZM551.367 60.981L553.129 53.1775L543.367 50.9731V60.981H551.367ZM560.388 63.018H568.388V56.623L562.15 55.2145L560.388 63.018ZM561.358 73.009L555.438 78.3904L555.695 78.6723L555.977 78.9285L561.358 73.009ZM577.266 73.009L582.923 78.6659L577.266 73.009ZM577.266 50.99L571.346 56.3714L571.603 56.6533L571.885 56.9095L577.266 50.99ZM553.404 47.886L547.747 53.5429L553.404 47.886ZM553.404 17.137L559.061 22.7939V22.7938L553.404 17.137ZM585.317 17.137L579.66 22.7938V22.7939L585.317 17.137ZM587.354 32.56L585.512 40.3451L595.354 42.6733V32.56H587.354ZM578.333 30.426H570.333V36.7543L576.491 38.2111L578.333 30.426ZM577.266 25.188L571.346 30.5694L571.603 30.8513L571.885 31.1075L577.266 25.188ZM561.358 25.188L567.015 30.8449V30.8448L561.358 25.188ZM561.358 39.932L555.438 45.3134L555.695 45.5953L555.977 45.8515L561.358 39.932ZM558.351 75C558.333 75 558.481 75.0012 558.705 75.0933C558.808 75.1355 558.895 75.1845 558.964 75.2308C559.031 75.2764 559.062 75.3076 559.061 75.3061L547.747 86.6199C550.622 89.4952 554.313 91 558.351 91V75ZM559.061 75.3061C559.059 75.3047 559.091 75.336 559.136 75.4032C559.182 75.4715 559.231 75.5593 559.274 75.6618C559.366 75.8854 559.367 76.0335 559.367 76.016H543.367C543.367 80.0535 544.872 83.7445 547.747 86.6199L559.061 75.3061ZM559.367 76.016V60.981H543.367V76.016H559.367ZM549.605 68.7845L558.626 70.8215L562.15 55.2145L553.129 53.1775L549.605 68.7845ZM552.388 63.018V70.487H568.388V63.018H552.388ZM552.388 70.487C552.388 73.4273 553.44 76.1918 555.438 78.3904L567.277 67.6276C567.576 67.9556 567.88 68.4075 568.097 68.9732C568.314 69.5376 568.388 70.0661 568.388 70.487H552.388ZM555.977 78.9285C558.061 80.8233 560.757 81.979 563.783 81.979V65.979C564.307 65.979 564.89 66.0773 565.469 66.3087C566.039 66.5369 566.462 66.837 566.739 67.0895L555.977 78.9285ZM563.783 81.979H574.841V65.979H563.783V81.979ZM574.841 81.979C577.79 81.979 580.678 80.9109 582.923 78.6659L571.609 67.3521C572.012 66.9488 572.551 66.5696 573.203 66.3087C573.846 66.0515 574.424 65.979 574.841 65.979V81.979ZM582.923 78.6659C585.072 76.5164 586.333 73.665 586.333 70.487H570.333C570.333 69.9692 570.433 69.3546 570.698 68.7279C570.961 68.1069 571.311 67.6505 571.609 67.3521L582.923 78.6659ZM586.333 70.487V53.415H570.333V70.487H586.333ZM586.333 53.415C586.333 50.2142 585.043 47.2488 582.647 45.0705L571.885 56.9095C571.486 56.5469 571.056 56.0121 570.744 55.3032C570.432 54.5959 570.333 53.9294 570.333 53.415H586.333ZM583.185 45.6086C581.007 43.2124 578.042 41.923 574.841 41.923V57.923C574.327 57.923 573.66 57.8235 572.953 57.5123C572.244 57.2003 571.709 56.7703 571.346 56.3714L583.185 45.6086ZM574.841 41.923H558.351V57.923H574.841V41.923ZM558.351 41.923C558.333 41.923 558.481 41.9242 558.705 42.0163C558.808 42.0585 558.895 42.1075 558.964 42.1538C559.031 42.1994 559.062 42.2306 559.061 42.2291L547.747 53.5429C550.622 56.4182 554.313 57.923 558.351 57.923V41.923ZM559.061 42.2291C559.059 42.2277 559.091 42.2589 559.136 42.3261C559.182 42.3945 559.231 42.4823 559.274 42.5848C559.366 42.8084 559.367 42.9565 559.367 42.939H543.367C543.367 46.9765 544.872 50.6675 547.747 53.5429L559.061 42.2291ZM559.367 42.939V22.084H543.367V42.939H559.367ZM559.367 22.084C559.367 22.0665 559.366 22.2146 559.274 22.4382C559.231 22.5406 559.182 22.6285 559.136 22.6968C559.091 22.764 559.059 22.7953 559.061 22.7939L547.747 11.4801C544.872 14.3555 543.367 18.0465 543.367 22.084H559.367ZM559.061 22.7938C559.062 22.7924 559.031 22.8236 558.964 22.8692C558.895 22.9155 558.808 22.9645 558.705 23.0067C558.481 23.0988 558.333 23.1 558.351 23.1V7.1C554.313 7.1 550.622 8.60482 547.747 11.4801L559.061 22.7938ZM558.351 23.1H580.37V7.1H558.351V23.1ZM580.37 23.1C580.387 23.1 580.239 23.0988 580.016 23.0067C579.913 22.9645 579.825 22.9155 579.757 22.8692C579.69 22.8236 579.659 22.7924 579.66 22.7938L590.974 11.4801C588.098 8.60482 584.407 7.1 580.37 7.1V23.1ZM579.66 22.7939C579.661 22.7953 579.63 22.764 579.585 22.6968C579.538 22.6285 579.489 22.5406 579.447 22.4382C579.355 22.2146 579.354 22.0665 579.354 22.084H595.354C595.354 18.0465 593.849 14.3555 590.974 11.4801L579.66 22.7939ZM579.354 22.084V32.56H595.354V22.084H579.354ZM589.195 24.7749L580.174 22.6409L576.491 38.2111L585.512 40.3451L589.195 24.7749ZM586.333 30.426V27.613H570.333V30.426H586.333ZM586.333 27.613C586.333 24.4122 585.043 21.4468 582.647 19.2685L571.885 31.1075C571.486 30.7449 571.056 30.2101 570.744 29.5012C570.432 28.7939 570.333 28.1274 570.333 27.613H586.333ZM583.185 19.8066C581.007 17.4104 578.042 16.121 574.841 16.121V32.121C574.327 32.121 573.66 32.0215 572.953 31.7103C572.244 31.3983 571.709 30.9683 571.346 30.5694L583.185 19.8066ZM574.841 16.121H563.783V32.121H574.841V16.121ZM563.783 16.121C560.511 16.121 557.73 17.5022 555.701 19.5312L567.015 30.8448C566.766 31.0939 566.341 31.437 565.72 31.7103C565.082 31.9906 564.411 32.121 563.783 32.121V16.121ZM555.701 19.5311C553.456 21.7762 552.388 24.6641 552.388 27.613H568.388C568.388 28.0297 568.315 28.6075 568.058 29.2504C567.797 29.9026 567.418 30.4415 567.015 30.8449L555.701 19.5311ZM552.388 27.613V37.41H568.388V27.613H552.388ZM552.388 37.41C552.388 40.3503 553.44 43.1148 555.438 45.3134L567.277 34.5506C567.576 34.8786 567.88 35.3305 568.097 35.8962C568.314 36.4606 568.388 36.9891 568.388 37.41H552.388ZM555.977 45.8515C558.061 47.7463 560.757 48.902 563.783 48.902V32.902C564.307 32.902 564.89 33.0003 565.469 33.2317C566.039 33.4599 566.462 33.76 566.739 34.0125L555.977 45.8515ZM563.783 48.902H580.37V32.902H563.783V48.902ZM580.37 48.902C580.387 48.902 580.239 48.9008 580.016 48.8087C579.913 48.7665 579.825 48.7175 579.757 48.6712C579.69 48.6256 579.659 48.5944 579.66 48.5959L590.974 37.2821C588.098 34.4068 584.407 32.902 580.37 32.902V48.902ZM579.66 48.5959C579.661 48.5973 579.63 48.566 579.585 48.4988C579.538 48.4305 579.489 48.3427 579.447 48.2402C579.355 48.0166 579.354 47.8685 579.354 47.886H595.354C595.354 43.8485 593.849 40.1575 590.974 37.2821L579.66 48.5959ZM579.354 47.886V76.016H595.354V47.886H579.354ZM579.354 76.016C579.354 76.0335 579.355 75.8854 579.447 75.6618C579.489 75.5593 579.538 75.4715 579.585 75.4032C579.63 75.336 579.661 75.3047 579.66 75.3061L590.974 86.6199C593.849 83.7445 595.354 80.0535 595.354 76.016H579.354ZM579.66 75.3061C579.659 75.3076 579.69 75.2764 579.757 75.2308C579.825 75.1845 579.913 75.1355 580.016 75.0933C580.239 75.0012 580.387 75 580.37 75V91C584.407 91 588.098 89.4952 590.974 86.6199L579.66 75.3061ZM580.37 75H558.351V91H580.37V75ZM591.296 83H583.296V91H591.296V83ZM591.296 73.882V65.882H583.296V73.882H591.296ZM600.414 73.882H608.414V65.882H600.414V73.882ZM600.414 83V91H608.414V83H600.414ZM599.296 83V73.882H583.296V83H599.296ZM591.296 81.882H600.414V65.882H591.296V81.882ZM592.414 73.882V83H608.414V73.882H592.414ZM600.414 75H591.296V91H600.414V75ZM608.157 83H600.157V91H608.157V83ZM608.157 73.882V65.882H600.157V73.882H608.157ZM617.275 73.882H625.275V65.882H617.275V73.882ZM617.275 83V91H625.275V83H617.275ZM616.157 83V73.882H600.157V83H616.157ZM608.157 81.882H617.275V65.882H608.157V81.882ZM609.275 73.882V83H625.275V73.882H609.275ZM617.275 75H608.157V91H617.275V75ZM625.019 83H617.019V91H625.019V83ZM625.019 73.882V65.882H617.019V73.882H625.019ZM634.137 73.882H642.137V65.882H634.137V73.882ZM634.137 83V91H642.137V83H634.137ZM633.019 83V73.882H617.019V83H633.019ZM625.019 81.882H634.137V65.882H625.019V81.882ZM626.137 73.882V83H642.137V73.882H626.137ZM634.137 75H625.019V91H634.137V75Z" fill="#17161A" mask="url(#path-1-outside-1_1_118)"/>
</svg>
