<svg width="862" height="166" viewBox="0 0 862 166" fill="none" xmlns="http://www.w3.org/2000/svg">
<mask id="path-1-outside-1_1_117" maskUnits="userSpaceOnUse" x="1" y="6" width="860" height="169" fill="black">
<rect fill="white" x="1" y="6" width="860" height="169"/>
<path d="M20.5824 129C17.7824 129 15.2824 127.95 13.0824 125.85C10.8824 123.75 9.78242 121.2 9.78242 118.2V34.8C9.78242 31.9 10.8824 29.4 13.0824 27.3C15.2824 25.1 17.7824 24 20.5824 24H54.6324C57.7324 24 60.2824 25.1 62.2824 27.3C64.3824 29.4 65.4324 31.9 65.4324 34.8V54.3L51.4824 57.45V43.35C51.4824 41.95 50.9824 40.7 49.9824 39.6C49.0824 38.5 47.8324 37.95 46.2324 37.95H29.1324C27.7324 37.95 26.4824 38.5 25.3824 39.6C24.2824 40.7 23.7324 41.95 23.7324 43.35V109.65C23.7324 111.25 24.2824 112.55 25.3824 113.55C26.4824 114.55 27.7324 115.05 29.1324 115.05H46.2324C47.8324 115.05 49.0824 114.55 49.9824 113.55C50.9824 112.55 51.4824 111.25 51.4824 109.65V98.7L65.4324 95.4V118.2C65.4324 121.2 64.3824 123.75 62.2824 125.85C60.2824 127.95 57.7324 129 54.6324 129H20.5824ZM76.209 129V54H107.559C110.559 54 113.109 55.1 115.209 57.3C117.409 59.4 118.509 61.95 118.509 64.95V81.3L104.409 78.15V73.65C104.409 72.15 103.859 70.85 102.759 69.75C101.759 68.65 100.509 68.1 99.009 68.1H90.309V129H76.209ZM138.575 166.5C135.475 166.5 132.875 165.45 130.775 163.35C128.675 161.25 127.625 158.65 127.625 155.55V139.2L141.725 142.5V147C141.725 148.4 142.275 149.65 143.375 150.75C144.475 151.85 145.725 152.4 147.125 152.4H150.425C151.825 152.4 153.075 151.85 154.175 150.75C155.275 149.65 155.825 148.4 155.825 147V129H138.575C135.475 129 132.875 127.95 130.775 125.85C128.675 123.75 127.625 121.15 127.625 118.05V54H141.725V109.5C141.725 110.9 142.275 112.15 143.375 113.25C144.475 114.35 145.725 114.9 147.125 114.9H155.825V54H169.925V155.55C169.925 158.65 168.875 161.25 166.775 163.35C164.675 165.45 162.125 166.5 159.125 166.5H138.575ZM189.841 129C186.841 129 184.291 127.95 182.191 125.85C180.091 123.65 179.041 121.05 179.041 118.05V105.6H192.991V109.5C192.991 111 193.541 112.3 194.641 113.4C195.741 114.4 197.041 114.9 198.541 114.9H201.691C203.191 114.9 204.441 114.4 205.441 113.4C206.541 112.3 207.091 111 207.091 109.5V103.95C207.091 102.45 206.541 101.2 205.441 100.2C204.441 99.1 203.191 98.55 201.691 98.55H189.841C186.841 98.55 184.291 97.5 182.191 95.4C180.091 93.2 179.041 90.6 179.041 87.6V64.95C179.041 61.95 180.091 59.4 182.191 57.3C184.291 55.1 186.841 54 189.841 54H210.391C213.391 54 215.941 55.1 218.041 57.3C220.141 59.4 221.191 61.95 221.191 64.95V77.4H207.091V73.5C207.091 72 206.541 70.75 205.441 69.75C204.441 68.65 203.191 68.1 201.691 68.1H198.541C197.041 68.1 195.741 68.65 194.641 69.75C193.541 70.75 192.991 72 192.991 73.5V79.05C192.991 80.55 193.541 81.85 194.641 82.95C195.741 83.95 197.041 84.45 198.541 84.45H210.391C213.391 84.45 215.941 85.55 218.041 87.75C220.141 89.85 221.191 92.4 221.191 95.4V118.65C221.091 121.45 219.991 123.9 217.891 126C215.791 128 213.291 129 210.391 129H189.841ZM230.311 129V19.8L244.411 16.65V54H262.261L258.961 68.1H244.411V129H230.311ZM271.729 129C268.729 129 266.129 127.95 263.929 125.85C261.829 123.75 260.779 121.15 260.779 118.05V95.4C260.779 92.4 261.829 89.85 263.929 87.75C266.129 85.55 268.729 84.45 271.729 84.45H283.429C285.029 84.45 286.329 83.95 287.329 82.95C288.429 81.85 288.979 80.55 288.979 79.05V73.5C288.979 72 288.429 70.75 287.329 69.75C286.329 68.65 285.029 68.1 283.429 68.1H267.229L270.379 54H292.129C295.129 54 297.679 55.1 299.779 57.3C301.979 59.4 303.079 61.95 303.079 64.95V129H271.729ZM280.279 114.9H288.979V98.55H280.279C278.779 98.55 277.479 99.1 276.379 100.2C275.379 101.2 274.879 102.45 274.879 103.95V109.5C274.879 111 275.379 112.3 276.379 113.4C277.479 114.4 278.779 114.9 280.279 114.9ZM313.66 129V19.95L327.76 16.8V129H313.66ZM374.782 129C371.982 129 369.482 127.95 367.282 125.85C365.082 123.75 363.982 121.2 363.982 118.2V34.8C363.982 31.9 365.082 29.4 367.282 27.3C369.482 25.1 371.982 24 374.782 24H408.832C411.932 24 414.482 25.1 416.482 27.3C418.582 29.4 419.632 31.9 419.632 34.8V54.3L405.682 57.45V43.35C405.682 41.95 405.182 40.7 404.182 39.6C403.282 38.5 402.032 37.95 400.432 37.95H383.332C381.932 37.95 380.682 38.5 379.582 39.6C378.482 40.7 377.932 41.95 377.932 43.35V109.65C377.932 111.25 378.482 112.55 379.582 113.55C380.682 114.55 381.932 115.05 383.332 115.05H400.432C402.032 115.05 403.282 114.55 404.182 113.55C405.182 112.55 405.682 111.25 405.682 109.65V98.7L419.632 95.4V118.2C419.632 121.2 418.582 123.75 416.482 125.85C414.482 127.95 411.932 129 408.832 129H374.782ZM439.629 129C436.529 129 433.929 127.95 431.829 125.85C429.729 123.65 428.679 121.05 428.679 118.05V64.95C428.679 61.95 429.729 59.4 431.829 57.3C433.929 55.1 436.529 54 439.629 54H460.029C463.029 54 465.579 55.1 467.679 57.3C469.779 59.4 470.829 61.95 470.829 64.95V118.05C470.829 121.05 469.779 123.65 467.679 125.85C465.579 127.95 463.029 129 460.029 129H439.629ZM448.179 114.9H451.329C452.829 114.9 454.129 114.4 455.229 113.4C456.329 112.3 456.879 111 456.879 109.5V73.5C456.879 72 456.329 70.75 455.229 69.75C454.129 68.65 452.829 68.1 451.329 68.1H448.179C446.679 68.1 445.379 68.65 444.279 69.75C443.279 70.75 442.779 72 442.779 73.5V109.5C442.779 111 443.279 112.3 444.279 113.4C445.379 114.4 446.679 114.9 448.179 114.9ZM481.531 129V19.95L495.631 16.8V129H481.531ZM507.605 129V19.95L521.705 16.8V129H507.605ZM543.165 129C540.165 129 537.565 127.95 535.365 125.85C533.265 123.65 532.215 121.05 532.215 118.05V64.8C532.215 61.8 533.265 59.25 535.365 57.15C537.565 55.05 540.165 54 543.165 54H563.565C566.665 54 569.265 55.05 571.365 57.15C573.465 59.25 574.515 61.8 574.515 64.8V87.6C574.515 90.6 573.465 93.2 571.365 95.4C569.265 97.5 566.665 98.55 563.565 98.55H546.315V109.5C546.315 111 546.815 112.3 547.815 113.4C548.915 114.4 550.265 114.9 551.865 114.9H571.365L574.515 129H543.165ZM546.315 84.45H555.015C556.515 84.45 557.765 83.95 558.765 82.95C559.865 81.85 560.415 80.55 560.415 79.05V73.5C560.415 72 559.865 70.75 558.765 69.75C557.765 68.65 556.515 68.1 555.015 68.1H551.865C550.265 68.1 548.915 68.65 547.815 69.75C546.815 70.75 546.315 72 546.315 73.5V84.45ZM594.581 129C591.481 129 588.881 127.95 586.781 125.85C584.681 123.65 583.631 121.05 583.631 118.05V64.95C583.631 61.95 584.681 59.4 586.781 57.3C588.881 55.1 591.481 54 594.581 54H614.981C617.981 54 620.531 55.1 622.631 57.3C624.831 59.4 625.931 61.95 625.931 64.95V81.3H611.831V73.5C611.831 72 611.281 70.75 610.181 69.75C609.081 68.65 607.781 68.1 606.281 68.1H603.131C601.631 68.1 600.331 68.65 599.231 69.75C598.231 70.75 597.731 72 597.731 73.5V109.5C597.731 111 598.231 112.3 599.231 113.4C600.331 114.4 601.631 114.9 603.131 114.9H606.281C607.781 114.9 609.081 114.4 610.181 113.4C611.281 112.3 611.831 111 611.831 109.5V101.7H625.931V118.05C625.931 121.05 624.831 123.65 622.631 125.85C620.531 127.95 617.981 129 614.981 129H594.581ZM635.047 129V19.8L649.147 16.65V54H666.997L663.697 68.1H649.147V129H635.047ZM682.06 129C678.96 129 676.36 127.95 674.26 125.85C672.16 123.65 671.11 121.05 671.11 118.05V64.95C671.11 61.95 672.16 59.4 674.26 57.3C676.36 55.1 678.96 54 682.06 54H702.46C705.46 54 708.01 55.1 710.11 57.3C712.21 59.4 713.26 61.95 713.26 64.95V118.05C713.26 121.05 712.21 123.65 710.11 125.85C708.01 127.95 705.46 129 702.46 129H682.06ZM690.61 114.9H693.76C695.26 114.9 696.56 114.4 697.66 113.4C698.76 112.3 699.31 111 699.31 109.5V73.5C699.31 72 698.76 70.75 697.66 69.75C696.56 68.65 695.26 68.1 693.76 68.1H690.61C689.11 68.1 687.81 68.65 686.71 69.75C685.71 70.75 685.21 72 685.21 73.5V109.5C685.21 111 685.71 112.3 686.71 113.4C687.81 114.4 689.11 114.9 690.61 114.9ZM720.887 129V54H752.237C755.237 54 757.787 55.1 759.887 57.3C762.087 59.4 763.187 61.95 763.187 64.95V81.3L749.087 78.15V73.65C749.087 72.15 748.537 70.85 747.437 69.75C746.437 68.65 745.187 68.1 743.687 68.1H734.987V129H720.887ZM807.35 129C804.35 129 801.8 127.95 799.7 125.85C797.6 123.75 796.55 121.2 796.55 118.2V98.55L810.5 101.85V109.65C810.5 111.15 811 112.45 812 113.55C813.1 114.55 814.4 115.05 815.9 115.05H833C834.4 115.05 835.65 114.55 836.75 113.55C837.85 112.45 838.4 111.15 838.4 109.65V83.25C838.4 81.75 837.85 80.5 836.75 79.5C835.65 78.4 834.4 77.85 833 77.85H819.2L822.35 63.9H833C834.4 63.9 835.65 63.4 836.75 62.4C837.85 61.3 838.4 60 838.4 58.5V43.2C838.4 41.8 837.85 40.6 836.75 39.6C835.65 38.5 834.4 37.95 833 37.95H815.45V37.8C814.05 37.9 812.85 38.5 811.85 39.6C810.95 40.6 810.5 41.8 810.5 43.2V57.45L796.55 54.3V34.65C796.55 31.75 797.6 29.25 799.7 27.15C801.8 25.05 804.35 24 807.35 24H841.55C844.45 24 846.95 25.05 849.05 27.15C851.15 29.25 852.2 31.75 852.2 34.65V67.05C852.2 68.55 852 69.85 851.6 70.95C852 72.05 852.2 73.3 852.2 74.7V118.2C852.2 121.2 851.15 123.75 849.05 125.85C846.95 127.95 844.45 129 841.55 129H807.35Z"/>
</mask>
<path d="M20.5824 129C17.7824 129 15.2824 127.95 13.0824 125.85C10.8824 123.75 9.78242 121.2 9.78242 118.2V34.8C9.78242 31.9 10.8824 29.4 13.0824 27.3C15.2824 25.1 17.7824 24 20.5824 24H54.6324C57.7324 24 60.2824 25.1 62.2824 27.3C64.3824 29.4 65.4324 31.9 65.4324 34.8V54.3L51.4824 57.45V43.35C51.4824 41.95 50.9824 40.7 49.9824 39.6C49.0824 38.5 47.8324 37.95 46.2324 37.95H29.1324C27.7324 37.95 26.4824 38.5 25.3824 39.6C24.2824 40.7 23.7324 41.95 23.7324 43.35V109.65C23.7324 111.25 24.2824 112.55 25.3824 113.55C26.4824 114.55 27.7324 115.05 29.1324 115.05H46.2324C47.8324 115.05 49.0824 114.55 49.9824 113.55C50.9824 112.55 51.4824 111.25 51.4824 109.65V98.7L65.4324 95.4V118.2C65.4324 121.2 64.3824 123.75 62.2824 125.85C60.2824 127.95 57.7324 129 54.6324 129H20.5824ZM76.209 129V54H107.559C110.559 54 113.109 55.1 115.209 57.3C117.409 59.4 118.509 61.95 118.509 64.95V81.3L104.409 78.15V73.65C104.409 72.15 103.859 70.85 102.759 69.75C101.759 68.65 100.509 68.1 99.009 68.1H90.309V129H76.209ZM138.575 166.5C135.475 166.5 132.875 165.45 130.775 163.35C128.675 161.25 127.625 158.65 127.625 155.55V139.2L141.725 142.5V147C141.725 148.4 142.275 149.65 143.375 150.75C144.475 151.85 145.725 152.4 147.125 152.4H150.425C151.825 152.4 153.075 151.85 154.175 150.75C155.275 149.65 155.825 148.4 155.825 147V129H138.575C135.475 129 132.875 127.95 130.775 125.85C128.675 123.75 127.625 121.15 127.625 118.05V54H141.725V109.5C141.725 110.9 142.275 112.15 143.375 113.25C144.475 114.35 145.725 114.9 147.125 114.9H155.825V54H169.925V155.55C169.925 158.65 168.875 161.25 166.775 163.35C164.675 165.45 162.125 166.5 159.125 166.5H138.575ZM189.841 129C186.841 129 184.291 127.95 182.191 125.85C180.091 123.65 179.041 121.05 179.041 118.05V105.6H192.991V109.5C192.991 111 193.541 112.3 194.641 113.4C195.741 114.4 197.041 114.9 198.541 114.9H201.691C203.191 114.9 204.441 114.4 205.441 113.4C206.541 112.3 207.091 111 207.091 109.5V103.95C207.091 102.45 206.541 101.2 205.441 100.2C204.441 99.1 203.191 98.55 201.691 98.55H189.841C186.841 98.55 184.291 97.5 182.191 95.4C180.091 93.2 179.041 90.6 179.041 87.6V64.95C179.041 61.95 180.091 59.4 182.191 57.3C184.291 55.1 186.841 54 189.841 54H210.391C213.391 54 215.941 55.1 218.041 57.3C220.141 59.4 221.191 61.95 221.191 64.95V77.4H207.091V73.5C207.091 72 206.541 70.75 205.441 69.75C204.441 68.65 203.191 68.1 201.691 68.1H198.541C197.041 68.1 195.741 68.65 194.641 69.75C193.541 70.75 192.991 72 192.991 73.5V79.05C192.991 80.55 193.541 81.85 194.641 82.95C195.741 83.95 197.041 84.45 198.541 84.45H210.391C213.391 84.45 215.941 85.55 218.041 87.75C220.141 89.85 221.191 92.4 221.191 95.4V118.65C221.091 121.45 219.991 123.9 217.891 126C215.791 128 213.291 129 210.391 129H189.841ZM230.311 129V19.8L244.411 16.65V54H262.261L258.961 68.1H244.411V129H230.311ZM271.729 129C268.729 129 266.129 127.95 263.929 125.85C261.829 123.75 260.779 121.15 260.779 118.05V95.4C260.779 92.4 261.829 89.85 263.929 87.75C266.129 85.55 268.729 84.45 271.729 84.45H283.429C285.029 84.45 286.329 83.95 287.329 82.95C288.429 81.85 288.979 80.55 288.979 79.05V73.5C288.979 72 288.429 70.75 287.329 69.75C286.329 68.65 285.029 68.1 283.429 68.1H267.229L270.379 54H292.129C295.129 54 297.679 55.1 299.779 57.3C301.979 59.4 303.079 61.95 303.079 64.95V129H271.729ZM280.279 114.9H288.979V98.55H280.279C278.779 98.55 277.479 99.1 276.379 100.2C275.379 101.2 274.879 102.45 274.879 103.95V109.5C274.879 111 275.379 112.3 276.379 113.4C277.479 114.4 278.779 114.9 280.279 114.9ZM313.66 129V19.95L327.76 16.8V129H313.66ZM374.782 129C371.982 129 369.482 127.95 367.282 125.85C365.082 123.75 363.982 121.2 363.982 118.2V34.8C363.982 31.9 365.082 29.4 367.282 27.3C369.482 25.1 371.982 24 374.782 24H408.832C411.932 24 414.482 25.1 416.482 27.3C418.582 29.4 419.632 31.9 419.632 34.8V54.3L405.682 57.45V43.35C405.682 41.95 405.182 40.7 404.182 39.6C403.282 38.5 402.032 37.95 400.432 37.95H383.332C381.932 37.95 380.682 38.5 379.582 39.6C378.482 40.7 377.932 41.95 377.932 43.35V109.65C377.932 111.25 378.482 112.55 379.582 113.55C380.682 114.55 381.932 115.05 383.332 115.05H400.432C402.032 115.05 403.282 114.55 404.182 113.55C405.182 112.55 405.682 111.25 405.682 109.65V98.7L419.632 95.4V118.2C419.632 121.2 418.582 123.75 416.482 125.85C414.482 127.95 411.932 129 408.832 129H374.782ZM439.629 129C436.529 129 433.929 127.95 431.829 125.85C429.729 123.65 428.679 121.05 428.679 118.05V64.95C428.679 61.95 429.729 59.4 431.829 57.3C433.929 55.1 436.529 54 439.629 54H460.029C463.029 54 465.579 55.1 467.679 57.3C469.779 59.4 470.829 61.95 470.829 64.95V118.05C470.829 121.05 469.779 123.65 467.679 125.85C465.579 127.95 463.029 129 460.029 129H439.629ZM448.179 114.9H451.329C452.829 114.9 454.129 114.4 455.229 113.4C456.329 112.3 456.879 111 456.879 109.5V73.5C456.879 72 456.329 70.75 455.229 69.75C454.129 68.65 452.829 68.1 451.329 68.1H448.179C446.679 68.1 445.379 68.65 444.279 69.75C443.279 70.75 442.779 72 442.779 73.5V109.5C442.779 111 443.279 112.3 444.279 113.4C445.379 114.4 446.679 114.9 448.179 114.9ZM481.531 129V19.95L495.631 16.8V129H481.531ZM507.605 129V19.95L521.705 16.8V129H507.605ZM543.165 129C540.165 129 537.565 127.95 535.365 125.85C533.265 123.65 532.215 121.05 532.215 118.05V64.8C532.215 61.8 533.265 59.25 535.365 57.15C537.565 55.05 540.165 54 543.165 54H563.565C566.665 54 569.265 55.05 571.365 57.15C573.465 59.25 574.515 61.8 574.515 64.8V87.6C574.515 90.6 573.465 93.2 571.365 95.4C569.265 97.5 566.665 98.55 563.565 98.55H546.315V109.5C546.315 111 546.815 112.3 547.815 113.4C548.915 114.4 550.265 114.9 551.865 114.9H571.365L574.515 129H543.165ZM546.315 84.45H555.015C556.515 84.45 557.765 83.95 558.765 82.95C559.865 81.85 560.415 80.55 560.415 79.05V73.5C560.415 72 559.865 70.75 558.765 69.75C557.765 68.65 556.515 68.1 555.015 68.1H551.865C550.265 68.1 548.915 68.65 547.815 69.75C546.815 70.75 546.315 72 546.315 73.5V84.45ZM594.581 129C591.481 129 588.881 127.95 586.781 125.85C584.681 123.65 583.631 121.05 583.631 118.05V64.95C583.631 61.95 584.681 59.4 586.781 57.3C588.881 55.1 591.481 54 594.581 54H614.981C617.981 54 620.531 55.1 622.631 57.3C624.831 59.4 625.931 61.95 625.931 64.95V81.3H611.831V73.5C611.831 72 611.281 70.75 610.181 69.75C609.081 68.65 607.781 68.1 606.281 68.1H603.131C601.631 68.1 600.331 68.65 599.231 69.75C598.231 70.75 597.731 72 597.731 73.5V109.5C597.731 111 598.231 112.3 599.231 113.4C600.331 114.4 601.631 114.9 603.131 114.9H606.281C607.781 114.9 609.081 114.4 610.181 113.4C611.281 112.3 611.831 111 611.831 109.5V101.7H625.931V118.05C625.931 121.05 624.831 123.65 622.631 125.85C620.531 127.95 617.981 129 614.981 129H594.581ZM635.047 129V19.8L649.147 16.65V54H666.997L663.697 68.1H649.147V129H635.047ZM682.06 129C678.96 129 676.36 127.95 674.26 125.85C672.16 123.65 671.11 121.05 671.11 118.05V64.95C671.11 61.95 672.16 59.4 674.26 57.3C676.36 55.1 678.96 54 682.06 54H702.46C705.46 54 708.01 55.1 710.11 57.3C712.21 59.4 713.26 61.95 713.26 64.95V118.05C713.26 121.05 712.21 123.65 710.11 125.85C708.01 127.95 705.46 129 702.46 129H682.06ZM690.61 114.9H693.76C695.26 114.9 696.56 114.4 697.66 113.4C698.76 112.3 699.31 111 699.31 109.5V73.5C699.31 72 698.76 70.75 697.66 69.75C696.56 68.65 695.26 68.1 693.76 68.1H690.61C689.11 68.1 687.81 68.65 686.71 69.75C685.71 70.75 685.21 72 685.21 73.5V109.5C685.21 111 685.71 112.3 686.71 113.4C687.81 114.4 689.11 114.9 690.61 114.9ZM720.887 129V54H752.237C755.237 54 757.787 55.1 759.887 57.3C762.087 59.4 763.187 61.95 763.187 64.95V81.3L749.087 78.15V73.65C749.087 72.15 748.537 70.85 747.437 69.75C746.437 68.65 745.187 68.1 743.687 68.1H734.987V129H720.887ZM807.35 129C804.35 129 801.8 127.95 799.7 125.85C797.6 123.75 796.55 121.2 796.55 118.2V98.55L810.5 101.85V109.65C810.5 111.15 811 112.45 812 113.55C813.1 114.55 814.4 115.05 815.9 115.05H833C834.4 115.05 835.65 114.55 836.75 113.55C837.85 112.45 838.4 111.15 838.4 109.65V83.25C838.4 81.75 837.85 80.5 836.75 79.5C835.65 78.4 834.4 77.85 833 77.85H819.2L822.35 63.9H833C834.4 63.9 835.65 63.4 836.75 62.4C837.85 61.3 838.4 60 838.4 58.5V43.2C838.4 41.8 837.85 40.6 836.75 39.6C835.65 38.5 834.4 37.95 833 37.95H815.45V37.8C814.05 37.9 812.85 38.5 811.85 39.6C810.95 40.6 810.5 41.8 810.5 43.2V57.45L796.55 54.3V34.65C796.55 31.75 797.6 29.25 799.7 27.15C801.8 25.05 804.35 24 807.35 24H841.55C844.45 24 846.95 25.05 849.05 27.15C851.15 29.25 852.2 31.75 852.2 34.65V67.05C852.2 68.55 852 69.85 851.6 70.95C852 72.05 852.2 73.3 852.2 74.7V118.2C852.2 121.2 851.15 123.75 849.05 125.85C846.95 127.95 844.45 129 841.55 129H807.35Z" fill="url(#paint0_linear_1_117)"/>
<path d="M13.0824 125.85L18.6062 120.063H18.6062L13.0824 125.85ZM13.0824 27.3L18.6062 33.0868L18.6735 33.0226L18.7393 32.9568L13.0824 27.3ZM62.2824 27.3L56.3629 32.6814L56.491 32.8222L56.6256 32.9568L62.2824 27.3ZM65.4324 54.3L67.1945 62.1035L73.4324 60.695V54.3H65.4324ZM51.4824 57.45H43.4824V67.4579L53.2445 65.2535L51.4824 57.45ZM49.9824 39.6L43.7908 44.6659L43.9227 44.8272L44.0629 44.9814L49.9824 39.6ZM25.3824 39.6L31.0393 45.2569L31.0393 45.2568L25.3824 39.6ZM25.3824 113.55L30.7638 107.63H30.7638L25.3824 113.55ZM49.9824 113.55L44.3256 107.893L44.1768 108.042L44.0361 108.198L49.9824 113.55ZM51.4824 98.7L49.6408 90.9149L43.4824 92.3717V98.7H51.4824ZM65.4324 95.4H73.4324V85.2867L63.5908 87.6149L65.4324 95.4ZM62.2824 125.85L56.6256 120.193L56.5566 120.262L56.4893 120.333L62.2824 125.85ZM20.5824 121C20.0261 121 19.4585 120.877 18.6062 120.063L7.55862 131.637C11.1064 135.023 15.5388 137 20.5824 137V121ZM18.6062 120.063C17.963 119.449 17.7824 118.98 17.7824 118.2H1.78242C1.78242 123.42 3.80185 128.051 7.55862 131.637L18.6062 120.063ZM17.7824 118.2V34.8H1.78242V118.2H17.7824ZM17.7824 34.8C17.7824 34.203 17.9012 33.7598 18.6062 33.0868L7.55861 21.5132C3.86364 25.0402 1.78242 29.597 1.78242 34.8H17.7824ZM18.7393 32.9568C19.6217 32.0744 20.1493 32 20.5824 32V16C15.4156 16 10.9431 18.1256 7.42557 21.6431L18.7393 32.9568ZM20.5824 32H54.6324V16H20.5824V32ZM54.6324 32C55.5873 32 55.9508 32.228 56.3629 32.6814L68.202 21.9186C64.6141 17.972 59.8776 16 54.6324 16V32ZM56.6256 32.9568C57.2658 33.597 57.4324 34.0783 57.4324 34.8H73.4324C73.4324 29.7217 71.4991 25.203 67.9393 21.6431L56.6256 32.9568ZM57.4324 34.8V54.3H73.4324V34.8H57.4324ZM63.6703 46.4965L49.7203 49.6465L53.2445 65.2535L67.1945 62.1035L63.6703 46.4965ZM59.4824 57.45V43.35H43.4824V57.45H59.4824ZM59.4824 43.35C59.4824 39.8292 58.1501 36.6916 55.9019 34.2186L44.0629 44.9814C43.9871 44.898 43.8195 44.6834 43.6796 44.3336C43.5366 43.976 43.4824 43.6264 43.4824 43.35H59.4824ZM56.1741 34.5341C53.5514 31.3286 49.8913 29.95 46.2324 29.95V45.95C46.1113 45.95 45.6976 45.9268 45.148 45.685C44.5716 45.4314 44.1055 45.0506 43.7908 44.6659L56.1741 34.5341ZM46.2324 29.95H29.1324V45.95H46.2324V29.95ZM29.1324 29.95C25.3655 29.95 22.1431 31.5256 19.7256 33.9432L31.0393 45.2568C30.9846 45.3115 30.767 45.5089 30.3668 45.685C29.9506 45.8682 29.5131 45.95 29.1324 45.95V29.95ZM19.7256 33.9431C17.308 36.3607 15.7324 39.5831 15.7324 43.35H31.7324C31.7324 43.7307 31.6506 44.1681 31.4674 44.5844C31.2914 44.9845 31.094 45.2022 31.0393 45.2569L19.7256 33.9431ZM15.7324 43.35V109.65H31.7324V43.35H15.7324ZM15.7324 109.65C15.7324 113.311 17.0956 116.828 20.001 119.47L30.7638 107.63C31.0244 107.867 31.3124 108.234 31.5127 108.708C31.7071 109.167 31.7324 109.522 31.7324 109.65H15.7324ZM20.001 119.47C22.474 121.718 25.6116 123.05 29.1324 123.05V107.05C29.4089 107.05 29.7585 107.104 30.116 107.247C30.4659 107.387 30.6804 107.555 30.7638 107.63L20.001 119.47ZM29.1324 123.05H46.2324V107.05H29.1324V123.05ZM46.2324 123.05C49.6316 123.05 53.2241 121.907 55.9288 118.902L44.0361 108.198C44.4063 107.787 44.887 107.452 45.3988 107.247C45.8788 107.055 46.2025 107.05 46.2324 107.05V123.05ZM55.6393 119.207C58.3415 116.505 59.4824 113.068 59.4824 109.65H43.4824C43.4824 109.612 43.4899 109.345 43.6407 108.953C43.7988 108.542 44.0466 108.172 44.3256 107.893L55.6393 119.207ZM59.4824 109.65V98.7H43.4824V109.65H59.4824ZM53.3241 106.485L67.2741 103.185L63.5908 87.6149L49.6408 90.9149L53.3241 106.485ZM57.4324 95.4V118.2H73.4324V95.4H57.4324ZM57.4324 118.2C57.4324 119.102 57.2082 119.61 56.6256 120.193L67.9393 131.507C71.5566 127.89 73.4324 123.298 73.4324 118.2H57.4324ZM56.4893 120.333C56.1117 120.729 55.7115 121 54.6324 121V137C59.7533 137 64.4532 135.171 68.0755 131.367L56.4893 120.333ZM54.6324 121H20.5824V137H54.6324V121ZM76.209 129H68.209V137H76.209V129ZM76.209 54V46H68.209V54H76.209ZM115.209 57.3L109.422 62.8238L109.551 62.9584L109.685 63.0868L115.209 57.3ZM118.509 81.3L116.765 89.1075L126.509 91.2844V81.3H118.509ZM104.409 78.15H96.409V84.56L102.665 85.9575L104.409 78.15ZM102.759 69.75L96.8395 75.1314L96.9675 75.2722L97.1021 75.4069L102.759 69.75ZM90.309 68.1V60.1H82.309V68.1H90.309ZM90.309 129V137H98.309V129H90.309ZM84.209 129V54H68.209V129H84.209ZM76.209 62H107.559V46H76.209V62ZM107.559 62C108.339 62 108.808 62.1806 109.422 62.8238L120.996 51.7762C117.41 48.0194 112.779 46 107.559 46V62ZM109.685 63.0868C110.328 63.7008 110.509 64.1702 110.509 64.95H126.509C126.509 59.7298 124.49 55.0992 120.733 51.5132L109.685 63.0868ZM110.509 64.95V81.3H126.509V64.95H110.509ZM120.253 73.4925L106.153 70.3425L102.665 85.9575L116.765 89.1075L120.253 73.4925ZM112.409 78.15V73.65H96.409V78.15H112.409ZM112.409 73.65C112.409 69.942 110.954 66.6313 108.416 64.0931L97.1021 75.4069C96.9981 75.3029 96.7943 75.0584 96.6287 74.6671C96.4608 74.2701 96.409 73.9028 96.409 73.65H112.409ZM108.679 64.3686C106.147 61.5837 102.74 60.1 99.009 60.1V76.1C98.7596 76.1 98.336 76.049 97.8496 75.835C97.3614 75.6202 97.0254 75.3359 96.8395 75.1314L108.679 64.3686ZM99.009 60.1H90.309V76.1H99.009V60.1ZM82.309 68.1V129H98.309V68.1H82.309ZM90.309 121H76.209V137H90.309V121ZM130.775 163.35L125.118 169.007H125.118L130.775 163.35ZM127.625 139.2L129.448 131.41L119.625 129.111V139.2H127.625ZM141.725 142.5H149.725V136.156L143.548 134.71L141.725 142.5ZM155.825 129H163.825V121H155.825V129ZM130.775 125.85L136.432 120.193L130.775 125.85ZM127.625 54V46H119.625V54H127.625ZM141.725 54H149.725V46H141.725V54ZM143.375 113.25L149.032 107.593V107.593L143.375 113.25ZM155.825 114.9V122.9H163.825V114.9H155.825ZM155.825 54V46H147.825V54H155.825ZM169.925 54H177.925V46H169.925V54ZM166.775 163.35L172.432 169.007V169.007L166.775 163.35ZM138.575 158.5C137.493 158.5 136.96 158.221 136.432 157.693L125.118 169.007C128.79 172.679 133.457 174.5 138.575 174.5V158.5ZM136.432 157.693C135.904 157.165 135.625 156.632 135.625 155.55H119.625C119.625 160.668 121.446 165.335 125.118 169.007L136.432 157.693ZM135.625 155.55V139.2H119.625V155.55H135.625ZM125.802 146.99L139.902 150.29L143.548 134.71L129.448 131.41L125.802 146.99ZM133.725 142.5V147H149.725V142.5H133.725ZM133.725 147C133.725 150.767 135.301 153.989 137.718 156.407L149.032 145.093C149.087 145.148 149.284 145.365 149.46 145.766C149.643 146.182 149.725 146.619 149.725 147H133.725ZM137.718 156.407C140.136 158.824 143.358 160.4 147.125 160.4V144.4C147.506 144.4 147.943 144.482 148.359 144.665C148.76 144.841 148.977 145.038 149.032 145.093L137.718 156.407ZM147.125 160.4H150.425V144.4H147.125V160.4ZM150.425 160.4C154.192 160.4 157.414 158.824 159.832 156.407L148.518 145.093C148.573 145.038 148.79 144.841 149.191 144.665C149.607 144.482 150.044 144.4 150.425 144.4V160.4ZM159.832 156.407C162.249 153.989 163.825 150.767 163.825 147H147.825C147.825 146.619 147.907 146.182 148.09 145.766C148.266 145.365 148.463 145.148 148.518 145.093L159.832 156.407ZM163.825 147V129H147.825V147H163.825ZM155.825 121H138.575V137H155.825V121ZM138.575 121C137.493 121 136.96 120.721 136.432 120.193L125.118 131.507C128.79 135.179 133.457 137 138.575 137V121ZM136.432 120.193C135.904 119.665 135.625 119.132 135.625 118.05H119.625C119.625 123.168 121.446 127.835 125.118 131.507L136.432 120.193ZM135.625 118.05V54H119.625V118.05H135.625ZM127.625 62H141.725V46H127.625V62ZM133.725 54V109.5H149.725V54H133.725ZM133.725 109.5C133.725 113.267 135.301 116.489 137.718 118.907L149.032 107.593C149.087 107.648 149.284 107.865 149.46 108.266C149.643 108.682 149.725 109.119 149.725 109.5H133.725ZM137.718 118.907C140.136 121.324 143.358 122.9 147.125 122.9V106.9C147.506 106.9 147.943 106.982 148.359 107.165C148.76 107.341 148.977 107.538 149.032 107.593L137.718 118.907ZM147.125 122.9H155.825V106.9H147.125V122.9ZM163.825 114.9V54H147.825V114.9H163.825ZM155.825 62H169.925V46H155.825V62ZM161.925 54V155.55H177.925V54H161.925ZM161.925 155.55C161.925 156.632 161.646 157.165 161.118 157.693L172.432 169.007C176.104 165.335 177.925 160.668 177.925 155.55H161.925ZM161.118 157.693C160.535 158.276 160.027 158.5 159.125 158.5V174.5C164.223 174.5 168.815 172.624 172.432 169.007L161.118 157.693ZM159.125 158.5H138.575V174.5H159.125V158.5ZM182.191 125.85L176.404 131.374L176.468 131.441L176.534 131.507L182.191 125.85ZM179.041 105.6V97.6H171.041V105.6H179.041ZM192.991 105.6H200.991V97.6H192.991V105.6ZM194.641 113.4L188.984 119.057L189.119 119.191L189.26 119.32L194.641 113.4ZM205.441 113.4L199.784 107.743V107.743L205.441 113.4ZM205.441 100.2L199.521 105.581L199.778 105.863L200.06 106.12L205.441 100.2ZM182.191 95.4L176.404 100.924L176.468 100.991L176.534 101.057L182.191 95.4ZM182.191 57.3L187.848 62.9569L187.914 62.8911L187.978 62.8238L182.191 57.3ZM218.041 57.3L212.254 62.8238L212.318 62.8911L212.384 62.9569L218.041 57.3ZM221.191 77.4V85.4H229.191V77.4H221.191ZM207.091 77.4H199.091V85.4H207.091V77.4ZM205.441 69.75L199.521 75.1314L199.778 75.4133L200.06 75.6695L205.441 69.75ZM194.641 69.75L200.022 75.6695L200.163 75.5415L200.298 75.4068L194.641 69.75ZM194.641 82.95L188.984 88.6068L189.119 88.7415L189.26 88.8695L194.641 82.95ZM218.041 87.75L212.254 93.2738L212.318 93.3411L212.384 93.4069L218.041 87.75ZM221.191 118.65L229.186 118.936L229.191 118.793V118.65H221.191ZM217.891 126L223.408 131.793L223.479 131.726L223.548 131.657L217.891 126ZM189.841 121C188.939 121 188.431 120.776 187.848 120.193L176.534 131.507C180.151 135.124 184.743 137 189.841 137V121ZM187.978 120.326C187.277 119.591 187.041 118.961 187.041 118.05H171.041C171.041 123.139 172.905 127.709 176.404 131.374L187.978 120.326ZM187.041 118.05V105.6H171.041V118.05H187.041ZM179.041 113.6H192.991V97.6H179.041V113.6ZM184.991 105.6V109.5H200.991V105.6H184.991ZM184.991 109.5C184.991 113.208 186.446 116.519 188.984 119.057L200.298 107.743C200.402 107.847 200.606 108.092 200.771 108.483C200.939 108.88 200.991 109.247 200.991 109.5H184.991ZM189.26 119.32C191.847 121.672 195.071 122.9 198.541 122.9V106.9C198.697 106.9 198.978 106.929 199.313 107.058C199.649 107.187 199.889 107.359 200.022 107.48L189.26 119.32ZM198.541 122.9H201.691V106.9H198.541V122.9ZM201.691 122.9C205.17 122.9 208.5 121.655 211.098 119.057L199.784 107.743C200.011 107.516 200.351 107.27 200.782 107.097C201.204 106.928 201.539 106.9 201.691 106.9V122.9ZM211.098 119.057C213.636 116.519 215.091 113.208 215.091 109.5H199.091C199.091 109.247 199.143 108.88 199.311 108.483C199.476 108.092 199.68 107.847 199.784 107.743L211.098 119.057ZM215.091 109.5V103.95H199.091V109.5H215.091ZM215.091 103.95C215.091 100.219 213.607 96.8122 210.822 94.2805L200.06 106.12C199.855 105.934 199.571 105.598 199.356 105.109C199.142 104.623 199.091 104.199 199.091 103.95H215.091ZM211.361 94.8186C208.829 92.0337 205.422 90.55 201.691 90.55V106.55C201.442 106.55 201.018 106.499 200.532 106.285C200.043 106.07 199.707 105.786 199.521 105.581L211.361 94.8186ZM201.691 90.55H189.841V106.55H201.691V90.55ZM189.841 90.55C188.939 90.55 188.431 90.3258 187.848 89.7431L176.534 101.057C180.151 104.674 184.743 106.55 189.841 106.55V90.55ZM187.978 89.8762C187.277 89.1415 187.041 88.5112 187.041 87.6H171.041C171.041 92.6888 172.905 97.2585 176.404 100.924L187.978 89.8762ZM187.041 87.6V64.95H171.041V87.6H187.041ZM187.041 64.95C187.041 64.0475 187.265 63.5395 187.848 62.9569L176.534 51.6431C172.917 55.2605 171.041 59.8525 171.041 64.95H187.041ZM187.978 62.8238C188.592 62.1806 189.061 62 189.841 62V46C184.621 46 179.99 48.0194 176.404 51.7762L187.978 62.8238ZM189.841 62H210.391V46H189.841V62ZM210.391 62C211.171 62 211.64 62.1806 212.254 62.8238L223.828 51.7762C220.242 48.0194 215.611 46 210.391 46V62ZM212.384 62.9569C212.967 63.5395 213.191 64.0475 213.191 64.95H229.191C229.191 59.8525 227.315 55.2605 223.698 51.6431L212.384 62.9569ZM213.191 64.95V77.4H229.191V64.95H213.191ZM221.191 69.4H207.091V85.4H221.191V69.4ZM215.091 77.4V73.5H199.091V77.4H215.091ZM215.091 73.5C215.091 69.7692 213.607 66.3622 210.822 63.8305L200.06 75.6695C199.855 75.4836 199.571 75.1476 199.356 74.6594C199.142 74.173 199.091 73.7494 199.091 73.5H215.091ZM211.361 64.3686C208.829 61.5837 205.422 60.1 201.691 60.1V76.1C201.442 76.1 201.018 76.049 200.532 75.835C200.043 75.6202 199.707 75.3359 199.521 75.1314L211.361 64.3686ZM201.691 60.1H198.541V76.1H201.691V60.1ZM198.541 60.1C194.833 60.1 191.522 61.555 188.984 64.0931L200.298 75.4068C200.194 75.5108 199.949 75.7147 199.558 75.8802C199.161 76.0482 198.794 76.1 198.541 76.1V60.1ZM189.26 63.8305C186.475 66.3622 184.991 69.7692 184.991 73.5H200.991C200.991 73.7494 200.94 74.173 200.726 74.6594C200.511 75.1476 200.227 75.4836 200.022 75.6695L189.26 63.8305ZM184.991 73.5V79.05H200.991V73.5H184.991ZM184.991 79.05C184.991 82.758 186.446 86.0687 188.984 88.6068L200.298 77.2931C200.402 77.3971 200.606 77.6416 200.771 78.0329C200.939 78.4299 200.991 78.7972 200.991 79.05H184.991ZM189.26 88.8695C191.847 91.2215 195.071 92.45 198.541 92.45V76.45C198.697 76.45 198.978 76.4795 199.313 76.6082C199.649 76.7374 199.889 76.909 200.022 77.0305L189.26 88.8695ZM198.541 92.45H210.391V76.45H198.541V92.45ZM210.391 92.45C211.171 92.45 211.64 92.6306 212.254 93.2738L223.828 82.2262C220.242 78.4694 215.611 76.45 210.391 76.45V92.45ZM212.384 93.4069C212.967 93.9895 213.191 94.4975 213.191 95.4H229.191C229.191 90.3025 227.315 85.7105 223.698 82.0931L212.384 93.4069ZM213.191 95.4V118.65H229.191V95.4H213.191ZM213.196 118.364C213.173 119.013 212.998 119.579 212.234 120.343L223.548 131.657C226.984 128.221 229.009 123.887 229.186 118.936L213.196 118.364ZM212.374 120.207C211.761 120.79 211.237 121 210.391 121V137C215.345 137 219.821 135.21 223.408 131.793L212.374 120.207ZM210.391 121H189.841V137H210.391V121ZM230.311 129H222.311V137H230.311V129ZM230.311 19.8L228.566 11.9925L222.311 13.39V19.8H230.311ZM244.411 16.65H252.411V6.66556L242.666 8.84246L244.411 16.65ZM244.411 54H236.411V62H244.411V54ZM262.261 54L270.05 55.8231L272.349 46H262.261V54ZM258.961 68.1V76.1H265.304L266.75 69.9231L258.961 68.1ZM244.411 68.1V60.1H236.411V68.1H244.411ZM244.411 129V137H252.411V129H244.411ZM238.311 129V19.8H222.311V129H238.311ZM232.055 27.6075L246.155 24.4575L242.666 8.84246L228.566 11.9925L232.055 27.6075ZM236.411 16.65V54H252.411V16.65H236.411ZM244.411 62H262.261V46H244.411V62ZM254.471 52.1769L251.171 66.2769L266.75 69.9231L270.05 55.8231L254.471 52.1769ZM258.961 60.1H244.411V76.1H258.961V60.1ZM236.411 68.1V129H252.411V68.1H236.411ZM244.411 121H230.311V137H244.411V121ZM263.929 125.85L258.272 131.507L258.338 131.573L258.405 131.637L263.929 125.85ZM263.929 87.75L269.586 93.4069L263.929 87.75ZM287.329 69.75L281.41 75.1314L281.666 75.4133L281.948 75.6695L287.329 69.75ZM267.229 68.1L259.422 66.3558L257.245 76.1H267.229V68.1ZM270.379 54V46H263.969L262.572 52.2558L270.379 54ZM299.779 57.3L293.992 62.8238L294.121 62.9584L294.255 63.0868L299.779 57.3ZM303.079 129V137H311.079V129H303.079ZM288.979 114.9V122.9H296.979V114.9H288.979ZM288.979 98.55H296.979V90.55H288.979V98.55ZM276.379 100.2L282.036 105.857V105.857L276.379 100.2ZM276.379 113.4L270.46 118.781L270.716 119.063L270.998 119.32L276.379 113.4ZM271.729 121C270.818 121 270.188 120.764 269.453 120.063L258.405 131.637C262.071 135.136 266.641 137 271.729 137V121ZM269.586 120.193C269.058 119.665 268.779 119.132 268.779 118.05H252.779C252.779 123.168 254.6 127.835 258.272 131.507L269.586 120.193ZM268.779 118.05V95.4H252.779V118.05H268.779ZM268.779 95.4C268.779 94.4975 269.003 93.9895 269.586 93.4069L258.272 82.0931C254.655 85.7105 252.779 90.3025 252.779 95.4H268.779ZM269.586 93.4069C270.348 92.645 270.937 92.45 271.729 92.45V76.45C266.521 76.45 261.911 78.455 258.272 82.0931L269.586 93.4069ZM271.729 92.45H283.429V76.45H271.729V92.45ZM283.429 92.45C286.847 92.45 290.284 91.3091 292.986 88.6068L281.672 77.2931C281.951 77.0142 282.321 76.7664 282.732 76.6082C283.125 76.4574 283.392 76.45 283.429 76.45V92.45ZM292.986 88.6068C295.524 86.0687 296.979 82.758 296.979 79.05H280.979C280.979 78.7972 281.031 78.4299 281.199 78.0329C281.365 77.6416 281.568 77.3971 281.672 77.2931L292.986 88.6068ZM296.979 79.05V73.5H280.979V79.05H296.979ZM296.979 73.5C296.979 69.7692 295.496 66.3622 292.711 63.8305L281.948 75.6695C281.743 75.4836 281.459 75.1476 281.244 74.6594C281.03 74.173 280.979 73.7494 280.979 73.5H296.979ZM293.249 64.3686C290.607 61.4632 287.09 60.1 283.429 60.1V76.1C283.301 76.1 282.947 76.0746 282.487 75.8802C282.014 75.6799 281.647 75.392 281.41 75.1314L293.249 64.3686ZM283.429 60.1H267.229V76.1H283.429V60.1ZM275.037 69.8442L278.187 55.7442L262.572 52.2558L259.422 66.3558L275.037 69.8442ZM270.379 62H292.129V46H270.379V62ZM292.129 62C292.909 62 293.378 62.1806 293.992 62.8238L305.566 51.7762C301.98 48.0194 297.349 46 292.129 46V62ZM294.255 63.0868C294.899 63.7008 295.079 64.1702 295.079 64.95H311.079C311.079 59.7298 309.06 55.0992 305.303 51.5132L294.255 63.0868ZM295.079 64.95V129H311.079V64.95H295.079ZM303.079 121H271.729V137H303.079V121ZM280.279 122.9H288.979V106.9H280.279V122.9ZM296.979 114.9V98.55H280.979V114.9H296.979ZM288.979 90.55H280.279V106.55H288.979V90.55ZM280.279 90.55C276.571 90.55 273.261 92.005 270.722 94.5432L282.036 105.857C281.932 105.961 281.688 106.165 281.296 106.33C280.899 106.498 280.532 106.55 280.279 106.55V90.55ZM270.722 94.5431C268.124 97.1415 266.879 100.471 266.879 103.95H282.879C282.879 104.102 282.851 104.437 282.682 104.859C282.51 105.29 282.263 105.63 282.036 105.857L270.722 94.5431ZM266.879 103.95V109.5H282.879V103.95H266.879ZM266.879 109.5C266.879 112.97 268.108 116.194 270.46 118.781L282.299 108.019C282.42 108.152 282.592 108.392 282.721 108.728C282.85 109.063 282.879 109.344 282.879 109.5H266.879ZM270.998 119.32C273.585 121.672 276.809 122.9 280.279 122.9V106.9C280.435 106.9 280.716 106.929 281.051 107.058C281.387 107.187 281.627 107.359 281.761 107.48L270.998 119.32ZM313.66 129H305.66V137H313.66V129ZM313.66 19.95L311.916 12.1425L305.66 13.54V19.95H313.66ZM327.76 16.8H335.76V6.81556L326.016 8.99246L327.76 16.8ZM327.76 129V137H335.76V129H327.76ZM321.66 129V19.95H305.66V129H321.66ZM315.404 27.7575L329.504 24.6075L326.016 8.99246L311.916 12.1425L315.404 27.7575ZM319.76 16.8V129H335.76V16.8H319.76ZM327.76 121H313.66V137H327.76V121ZM367.282 125.85L372.805 120.063L367.282 125.85ZM367.282 27.3L372.805 33.0868L372.873 33.0226L372.939 32.9568L367.282 27.3ZM416.482 27.3L410.562 32.6814L410.69 32.8222L410.825 32.9568L416.482 27.3ZM419.632 54.3L421.394 62.1035L427.632 60.695V54.3H419.632ZM405.682 57.45H397.682V67.4579L407.444 65.2535L405.682 57.45ZM404.182 39.6L397.99 44.6659L398.122 44.8272L398.262 44.9814L404.182 39.6ZM379.582 39.6L385.238 45.2569V45.2568L379.582 39.6ZM379.582 113.55L384.963 107.63L379.582 113.55ZM404.182 113.55L398.525 107.893L398.376 108.042L398.235 108.198L404.182 113.55ZM405.682 98.7L403.84 90.9149L397.682 92.3717V98.7H405.682ZM419.632 95.4H427.632V85.2867L417.79 87.6149L419.632 95.4ZM416.482 125.85L410.825 120.193L410.756 120.262L410.689 120.333L416.482 125.85ZM374.782 121C374.225 121 373.658 120.877 372.805 120.063L361.758 131.637C365.306 135.023 369.738 137 374.782 137V121ZM372.805 120.063C372.162 119.449 371.982 118.98 371.982 118.2H355.982C355.982 123.42 358.001 128.051 361.758 131.637L372.805 120.063ZM371.982 118.2V34.8H355.982V118.2H371.982ZM371.982 34.8C371.982 34.203 372.1 33.7598 372.805 33.0868L361.758 21.5132C358.063 25.0402 355.982 29.597 355.982 34.8H371.982ZM372.939 32.9568C373.821 32.0744 374.349 32 374.782 32V16C369.615 16 365.142 18.1256 361.625 21.6431L372.939 32.9568ZM374.782 32H408.832V16H374.782V32ZM408.832 32C409.787 32 410.15 32.228 410.562 32.6814L422.401 21.9186C418.813 17.972 414.077 16 408.832 16V32ZM410.825 32.9568C411.465 33.597 411.632 34.0783 411.632 34.8H427.632C427.632 29.7217 425.698 25.203 422.138 21.6431L410.825 32.9568ZM411.632 34.8V54.3H427.632V34.8H411.632ZM417.87 46.4965L403.92 49.6465L407.444 65.2535L421.394 62.1035L417.87 46.4965ZM413.682 57.45V43.35H397.682V57.45H413.682ZM413.682 43.35C413.682 39.8292 412.349 36.6916 410.101 34.2186L398.262 44.9814C398.186 44.898 398.019 44.6834 397.879 44.3336C397.736 43.976 397.682 43.6264 397.682 43.35H413.682ZM410.373 34.5341C407.751 31.3286 404.091 29.95 400.432 29.95V45.95C400.311 45.95 399.897 45.9268 399.347 45.685C398.771 45.4314 398.305 45.0506 397.99 44.6659L410.373 34.5341ZM400.432 29.95H383.332V45.95H400.432V29.95ZM383.332 29.95C379.565 29.95 376.342 31.5256 373.925 33.9432L385.238 45.2568C385.184 45.3115 384.966 45.5089 384.566 45.685C384.15 45.8682 383.712 45.95 383.332 45.95V29.95ZM373.925 33.9431C371.507 36.3607 369.932 39.5831 369.932 43.35H385.932C385.932 43.7307 385.85 44.1681 385.667 44.5844C385.491 44.9845 385.293 45.2022 385.238 45.2569L373.925 33.9431ZM369.932 43.35V109.65H385.932V43.35H369.932ZM369.932 109.65C369.932 113.311 371.295 116.828 374.2 119.47L384.963 107.63C385.224 107.867 385.512 108.234 385.712 108.708C385.906 109.167 385.932 109.522 385.932 109.65H369.932ZM374.2 119.47C376.673 121.718 379.811 123.05 383.332 123.05V107.05C383.608 107.05 383.958 107.104 384.315 107.247C384.665 107.387 384.88 107.555 384.963 107.63L374.2 119.47ZM383.332 123.05H400.432V107.05H383.332V123.05ZM400.432 123.05C403.831 123.05 407.423 121.907 410.128 118.902L398.235 108.198C398.606 107.787 399.086 107.452 399.598 107.247C400.078 107.055 400.402 107.05 400.432 107.05V123.05ZM409.839 119.207C412.541 116.505 413.682 113.068 413.682 109.65H397.682C397.682 109.612 397.689 109.345 397.84 108.953C397.998 108.542 398.246 108.172 398.525 107.893L409.839 119.207ZM413.682 109.65V98.7H397.682V109.65H413.682ZM407.523 106.485L421.473 103.185L417.79 87.6149L403.84 90.9149L407.523 106.485ZM411.632 95.4V118.2H427.632V95.4H411.632ZM411.632 118.2C411.632 119.102 411.407 119.61 410.825 120.193L422.138 131.507C425.756 127.89 427.632 123.298 427.632 118.2H411.632ZM410.689 120.333C410.311 120.729 409.911 121 408.832 121V137C413.953 137 418.652 135.171 422.275 131.367L410.689 120.333ZM408.832 121H374.782V137H408.832V121ZM431.829 125.85L426.042 131.374L426.106 131.441L426.172 131.507L431.829 125.85ZM431.829 57.3L437.485 62.9569L437.551 62.8911L437.615 62.8238L431.829 57.3ZM467.679 57.3L461.892 62.8238L461.956 62.8911L462.022 62.9569L467.679 57.3ZM467.679 125.85L473.335 131.507L473.401 131.441L473.465 131.374L467.679 125.85ZM455.229 113.4L460.61 119.32L460.751 119.191L460.885 119.057L455.229 113.4ZM455.229 69.75L449.572 75.4068L449.706 75.5415L449.847 75.6695L455.229 69.75ZM444.279 69.75L449.935 75.4069V75.4068L444.279 69.75ZM444.279 113.4L438.359 118.781L438.615 119.063L438.897 119.32L444.279 113.4ZM439.629 121C438.547 121 438.013 120.721 437.485 120.193L426.172 131.507C429.844 135.179 434.51 137 439.629 137V121ZM437.615 120.326C436.914 119.591 436.679 118.961 436.679 118.05H420.679C420.679 123.139 422.543 127.709 426.042 131.374L437.615 120.326ZM436.679 118.05V64.95H420.679V118.05H436.679ZM436.679 64.95C436.679 64.0475 436.903 63.5395 437.485 62.9569L426.172 51.6431C422.554 55.2605 420.679 59.8525 420.679 64.95H436.679ZM437.615 62.8238C438.173 62.2394 438.667 62 439.629 62V46C434.39 46 429.684 47.9606 426.042 51.7762L437.615 62.8238ZM439.629 62H460.029V46H439.629V62ZM460.029 62C460.808 62 461.278 62.1806 461.892 62.8238L473.465 51.7762C469.879 48.0194 465.249 46 460.029 46V62ZM462.022 62.9569C462.604 63.5395 462.829 64.0475 462.829 64.95H478.829C478.829 59.8525 476.953 55.2605 473.335 51.6431L462.022 62.9569ZM462.829 64.95V118.05H478.829V64.95H462.829ZM462.829 118.05C462.829 118.961 462.593 119.591 461.892 120.326L473.465 131.374C476.964 127.709 478.829 123.139 478.829 118.05H462.829ZM462.022 120.193C461.439 120.776 460.931 121 460.029 121V137C465.126 137 469.718 135.124 473.335 131.507L462.022 120.193ZM460.029 121H439.629V137H460.029V121ZM448.179 122.9H451.329V106.9H448.179V122.9ZM451.329 122.9C454.799 122.9 458.023 121.672 460.61 119.32L449.847 107.48C449.981 107.359 450.221 107.187 450.557 107.058C450.891 106.929 451.173 106.9 451.329 106.9V122.9ZM460.885 119.057C463.424 116.519 464.879 113.208 464.879 109.5H448.879C448.879 109.247 448.93 108.88 449.098 108.483C449.264 108.092 449.468 107.847 449.572 107.743L460.885 119.057ZM464.879 109.5V73.5H448.879V109.5H464.879ZM464.879 73.5C464.879 69.7692 463.395 66.3622 460.61 63.8305L449.847 75.6695C449.643 75.4836 449.358 75.1476 449.143 74.6594C448.929 74.173 448.879 73.7494 448.879 73.5H464.879ZM460.885 64.0931C458.347 61.555 455.037 60.1 451.329 60.1V76.1C451.076 76.1 450.708 76.0482 450.311 75.8802C449.92 75.7147 449.676 75.5108 449.572 75.4068L460.885 64.0931ZM451.329 60.1H448.179V76.1H451.329V60.1ZM448.179 60.1C444.47 60.1 441.16 61.555 438.622 64.0931L449.935 75.4068C449.831 75.5108 449.587 75.7147 449.196 75.8802C448.799 76.0482 448.431 76.1 448.179 76.1V60.1ZM438.622 64.0931C436.023 66.6915 434.779 70.0211 434.779 73.5H450.779C450.779 73.6517 450.75 73.9866 450.581 74.4086C450.409 74.84 450.162 75.1801 449.935 75.4069L438.622 64.0931ZM434.779 73.5V109.5H450.779V73.5H434.779ZM434.779 109.5C434.779 112.97 436.007 116.194 438.359 118.781L450.198 108.019C450.32 108.152 450.491 108.392 450.62 108.728C450.749 109.063 450.779 109.344 450.779 109.5H434.779ZM438.897 119.32C441.484 121.672 444.708 122.9 448.179 122.9V106.9C448.334 106.9 448.616 106.929 448.95 107.058C449.286 107.187 449.526 107.359 449.66 107.48L438.897 119.32ZM481.531 129H473.531V137H481.531V129ZM481.531 19.95L479.787 12.1425L473.531 13.54V19.95H481.531ZM495.631 16.8H503.631V6.81556L493.887 8.99246L495.631 16.8ZM495.631 129V137H503.631V129H495.631ZM489.531 129V19.95H473.531V129H489.531ZM483.275 27.7575L497.375 24.6075L493.887 8.99246L479.787 12.1425L483.275 27.7575ZM487.631 16.8V129H503.631V16.8H487.631ZM495.631 121H481.531V137H495.631V121ZM507.605 129H499.605V137H507.605V129ZM507.605 19.95L505.861 12.1425L499.605 13.54V19.95H507.605ZM521.705 16.8H529.705V6.81556L519.961 8.99246L521.705 16.8ZM521.705 129V137H529.705V129H521.705ZM515.605 129V19.95H499.605V129H515.605ZM509.35 27.7575L523.45 24.6075L519.961 8.99246L505.861 12.1425L509.35 27.7575ZM513.705 16.8V129H529.705V16.8H513.705ZM521.705 121H507.605V137H521.705V121ZM535.365 125.85L529.578 131.374L529.706 131.508L529.841 131.637L535.365 125.85ZM535.365 57.15L529.841 51.3631L529.774 51.4274L529.708 51.4931L535.365 57.15ZM571.365 57.15L577.022 51.4931L577.022 51.4931L571.365 57.15ZM571.365 95.4L577.022 101.057L577.087 100.991L577.152 100.924L571.365 95.4ZM546.315 98.55V90.55H538.315V98.55H546.315ZM547.815 113.4L541.895 118.781L542.152 119.063L542.433 119.32L547.815 113.4ZM571.365 114.9L579.172 113.156L577.775 106.9H571.365V114.9ZM574.515 129V137H584.499L582.322 127.256L574.515 129ZM546.315 84.45H538.315V92.45H546.315V84.45ZM558.765 69.75L552.845 75.1314L553.102 75.4133L553.383 75.6695L558.765 69.75ZM547.815 69.75L553.472 75.4069V75.4068L547.815 69.75ZM543.165 121C542.254 121 541.623 120.764 540.889 120.063L529.841 131.637C533.506 135.136 538.076 137 543.165 137V121ZM541.152 120.326C540.45 119.591 540.215 118.961 540.215 118.05H524.215C524.215 123.139 526.079 127.709 529.578 131.374L541.152 120.326ZM540.215 118.05V64.8H524.215V118.05H540.215ZM540.215 64.8C540.215 63.8975 540.439 63.3895 541.022 62.8069L529.708 51.4931C526.091 55.1105 524.215 59.7025 524.215 64.8H540.215ZM540.889 62.9368C541.623 62.2355 542.254 62 543.165 62V46C538.076 46 533.506 47.8645 529.841 51.3631L540.889 62.9368ZM543.165 62H563.565V46H543.165V62ZM563.565 62C564.647 62 565.18 62.2789 565.708 62.8069L577.022 51.4931C573.35 47.8211 568.683 46 563.565 46V62ZM565.708 62.8069C566.291 63.3895 566.515 63.8975 566.515 64.8H582.515C582.515 59.7025 580.639 55.1105 577.022 51.4931L565.708 62.8069ZM566.515 64.8V87.6H582.515V64.8H566.515ZM566.515 87.6C566.515 88.5112 566.279 89.1415 565.578 89.8762L577.152 100.924C580.65 97.2585 582.515 92.6888 582.515 87.6H566.515ZM565.708 89.7431C565.18 90.2711 564.647 90.55 563.565 90.55V106.55C568.683 106.55 573.35 104.729 577.022 101.057L565.708 89.7431ZM563.565 90.55H546.315V106.55H563.565V90.55ZM538.315 98.55V109.5H554.315V98.55H538.315ZM538.315 109.5C538.315 112.97 539.543 116.194 541.895 118.781L553.734 108.019C553.856 108.152 554.027 108.392 554.157 108.728C554.285 109.063 554.315 109.344 554.315 109.5H538.315ZM542.433 119.32C545.124 121.765 548.44 122.9 551.865 122.9V106.9C551.908 106.9 552.123 106.909 552.431 107.023C552.748 107.141 553.013 107.314 553.196 107.48L542.433 119.32ZM551.865 122.9H571.365V106.9H551.865V122.9ZM563.557 116.644L566.707 130.744L582.322 127.256L579.172 113.156L563.557 116.644ZM574.515 121H543.165V137H574.515V121ZM546.315 92.45H555.015V76.45H546.315V92.45ZM555.015 92.45C558.494 92.45 561.823 91.2052 564.422 88.6068L553.108 77.2931C553.335 77.0664 553.675 76.8197 554.106 76.6472C554.528 76.4784 554.863 76.45 555.015 76.45V92.45ZM564.422 88.6068C566.96 86.0687 568.415 82.758 568.415 79.05H552.415C552.415 78.7972 552.467 78.4299 552.635 78.0329C552.8 77.6416 553.004 77.3971 553.108 77.2931L564.422 88.6068ZM568.415 79.05V73.5H552.415V79.05H568.415ZM568.415 73.5C568.415 69.7692 566.931 66.3622 564.146 63.8305L553.383 75.6695C553.179 75.4836 552.895 75.1476 552.68 74.6594C552.466 74.173 552.415 73.7494 552.415 73.5H568.415ZM564.684 64.3686C562.153 61.5837 558.746 60.1 555.015 60.1V76.1C554.766 76.1 554.342 76.049 553.855 75.835C553.367 75.6202 553.031 75.3359 552.845 75.1314L564.684 64.3686ZM555.015 60.1H551.865V76.1H555.015V60.1ZM551.865 60.1C548.211 60.1 544.805 61.4456 542.158 64.0931L553.472 75.4068C553.319 75.5595 553.048 75.7674 552.671 75.9212C552.298 76.0732 551.998 76.1 551.865 76.1V60.1ZM542.158 64.0931C539.56 66.6915 538.315 70.0211 538.315 73.5H554.315C554.315 73.6517 554.286 73.9866 554.118 74.4086C553.945 74.84 553.698 75.1801 553.472 75.4069L542.158 64.0931ZM538.315 73.5V84.45H554.315V73.5H538.315ZM586.781 125.85L580.994 131.374L581.058 131.441L581.124 131.507L586.781 125.85ZM586.781 57.3L592.438 62.9569L592.503 62.8911L592.568 62.8238L586.781 57.3ZM622.631 57.3L616.844 62.8238L616.972 62.9584L617.107 63.0868L622.631 57.3ZM625.931 81.3V89.3H633.931V81.3H625.931ZM611.831 81.3H603.831V89.3H611.831V81.3ZM610.181 69.75L604.524 75.4068L604.659 75.5415L604.799 75.6695L610.181 69.75ZM599.231 69.75L604.888 75.4069V75.4068L599.231 69.75ZM599.231 113.4L593.311 118.781L593.568 119.063L593.849 119.32L599.231 113.4ZM610.181 113.4L615.562 119.32L615.703 119.191L615.838 119.057L610.181 113.4ZM611.831 101.7V93.7H603.831V101.7H611.831ZM625.931 101.7H633.931V93.7H625.931V101.7ZM622.631 125.85L616.974 120.193L622.631 125.85ZM594.581 121C593.499 121 592.966 120.721 592.438 120.193L581.124 131.507C584.796 135.179 589.463 137 594.581 137V121ZM592.568 120.326C591.866 119.591 591.631 118.961 591.631 118.05H575.631C575.631 123.139 577.495 127.709 580.994 131.374L592.568 120.326ZM591.631 118.05V64.95H575.631V118.05H591.631ZM591.631 64.95C591.631 64.0475 591.855 63.5395 592.438 62.9569L581.124 51.6431C577.507 55.2605 575.631 59.8525 575.631 64.95H591.631ZM592.568 62.8238C593.126 62.2394 593.62 62 594.581 62V46C589.342 46 584.636 47.9606 580.994 51.7762L592.568 62.8238ZM594.581 62H614.981V46H594.581V62ZM614.981 62C615.761 62 616.23 62.1806 616.844 62.8238L628.418 51.7762C624.832 48.0194 620.201 46 614.981 46V62ZM617.107 63.0868C617.75 63.7008 617.931 64.1702 617.931 64.95H633.931C633.931 59.7298 631.911 55.0992 628.155 51.5132L617.107 63.0868ZM617.931 64.95V81.3H633.931V64.95H617.931ZM625.931 73.3H611.831V89.3H625.931V73.3ZM619.831 81.3V73.5H603.831V81.3H619.831ZM619.831 73.5C619.831 69.7692 618.347 66.3622 615.562 63.8305L604.799 75.6695C604.595 75.4836 604.311 75.1476 604.096 74.6594C603.882 74.173 603.831 73.7494 603.831 73.5H619.831ZM615.838 64.0931C613.3 61.555 609.989 60.1 606.281 60.1V76.1C606.028 76.1 605.661 76.0482 605.264 75.8802C604.872 75.7147 604.628 75.5108 604.524 75.4068L615.838 64.0931ZM606.281 60.1H603.131V76.1H606.281V60.1ZM603.131 60.1C599.423 60.1 596.112 61.555 593.574 64.0931L604.888 75.4068C604.784 75.5108 604.539 75.7147 604.148 75.8802C603.751 76.0482 603.384 76.1 603.131 76.1V60.1ZM593.574 64.0931C590.976 66.6915 589.731 70.0211 589.731 73.5H605.731C605.731 73.6517 605.702 73.9866 605.534 74.4086C605.361 74.84 605.114 75.1801 604.888 75.4069L593.574 64.0931ZM589.731 73.5V109.5H605.731V73.5H589.731ZM589.731 109.5C589.731 112.97 590.959 116.194 593.311 118.781L605.15 108.019C605.272 108.152 605.443 108.392 605.573 108.728C605.701 109.063 605.731 109.344 605.731 109.5H589.731ZM593.849 119.32C596.437 121.672 599.661 122.9 603.131 122.9V106.9C603.287 106.9 603.568 106.929 603.903 107.058C604.239 107.187 604.479 107.359 604.612 107.48L593.849 119.32ZM603.131 122.9H606.281V106.9H603.131V122.9ZM606.281 122.9C609.751 122.9 612.975 121.672 615.562 119.32L604.799 107.48C604.933 107.359 605.173 107.187 605.509 107.058C605.844 106.929 606.125 106.9 606.281 106.9V122.9ZM615.838 119.057C618.376 116.519 619.831 113.208 619.831 109.5H603.831C603.831 109.247 603.883 108.88 604.051 108.483C604.216 108.092 604.42 107.847 604.524 107.743L615.838 119.057ZM619.831 109.5V101.7H603.831V109.5H619.831ZM611.831 109.7H625.931V93.7H611.831V109.7ZM617.931 101.7V118.05H633.931V101.7H617.931ZM617.931 118.05C617.931 118.842 617.736 119.431 616.974 120.193L628.288 131.507C631.926 127.869 633.931 123.258 633.931 118.05H617.931ZM616.974 120.193C616.391 120.776 615.883 121 614.981 121V137C620.078 137 624.67 135.124 628.288 131.507L616.974 120.193ZM614.981 121H594.581V137H614.981V121ZM635.047 129H627.047V137H635.047V129ZM635.047 19.8L633.303 11.9925L627.047 13.39V19.8H635.047ZM649.147 16.65H657.147V6.66556L647.403 8.84246L649.147 16.65ZM649.147 54H641.147V62H649.147V54ZM666.997 54L674.786 55.8231L677.085 46H666.997V54ZM663.697 68.1V76.1H670.041L671.486 69.9231L663.697 68.1ZM649.147 68.1V60.1H641.147V68.1H649.147ZM649.147 129V137H657.147V129H649.147ZM643.047 129V19.8H627.047V129H643.047ZM636.791 27.6075L650.891 24.4575L647.403 8.84246L633.303 11.9925L636.791 27.6075ZM641.147 16.65V54H657.147V16.65H641.147ZM649.147 62H666.997V46H649.147V62ZM659.207 52.1769L655.907 66.2769L671.486 69.9231L674.786 55.8231L659.207 52.1769ZM663.697 60.1H649.147V76.1H663.697V60.1ZM641.147 68.1V129H657.147V68.1H641.147ZM649.147 121H635.047V137H649.147V121ZM674.26 125.85L668.473 131.374L668.538 131.441L668.603 131.507L674.26 125.85ZM674.26 57.3L679.917 62.9569L679.983 62.8911L680.047 62.8238L674.26 57.3ZM710.11 57.3L704.323 62.8238L704.388 62.8911L704.453 62.9569L710.11 57.3ZM710.11 125.85L715.767 131.507L715.833 131.441L715.897 131.374L710.11 125.85ZM697.66 113.4L703.042 119.32L703.182 119.191L703.317 119.057L697.66 113.4ZM697.66 69.75L692.003 75.4068L692.138 75.5415L692.279 75.6695L697.66 69.75ZM686.71 69.75L692.367 75.4069V75.4068L686.71 69.75ZM686.71 113.4L680.791 118.781L681.047 119.063L681.329 119.32L686.71 113.4ZM682.06 121C680.978 121 680.445 120.721 679.917 120.193L668.603 131.507C672.275 135.179 676.942 137 682.06 137V121ZM680.047 120.326C679.346 119.591 679.11 118.961 679.11 118.05H663.11C663.11 123.139 664.975 127.709 668.473 131.374L680.047 120.326ZM679.11 118.05V64.95H663.11V118.05H679.11ZM679.11 64.95C679.11 64.0475 679.334 63.5395 679.917 62.9569L668.603 51.6431C664.986 55.2605 663.11 59.8525 663.11 64.95H679.11ZM680.047 62.8238C680.605 62.2394 681.099 62 682.06 62V46C676.822 46 672.115 47.9606 668.473 51.7762L680.047 62.8238ZM682.06 62H702.46V46H682.06V62ZM702.46 62C703.24 62 703.709 62.1806 704.323 62.8238L715.897 51.7762C712.311 48.0194 707.68 46 702.46 46V62ZM704.453 62.9569C705.036 63.5395 705.26 64.0475 705.26 64.95H721.26C721.26 59.8525 719.384 55.2605 715.767 51.6431L704.453 62.9569ZM705.26 64.95V118.05H721.26V64.95H705.26ZM705.26 118.05C705.26 118.961 705.025 119.591 704.323 120.326L715.897 131.374C719.396 127.709 721.26 123.139 721.26 118.05H705.26ZM704.453 120.193C703.871 120.776 703.363 121 702.46 121V137C707.558 137 712.15 135.124 715.767 131.507L704.453 120.193ZM702.46 121H682.06V137H702.46V121ZM690.61 122.9H693.76V106.9H690.61V122.9ZM693.76 122.9C697.23 122.9 700.454 121.672 703.042 119.32L692.279 107.48C692.412 107.359 692.652 107.187 692.988 107.058C693.323 106.929 693.604 106.9 693.76 106.9V122.9ZM703.317 119.057C705.855 116.519 707.31 113.208 707.31 109.5H691.31C691.31 109.247 691.362 108.88 691.53 108.483C691.695 108.092 691.899 107.847 692.003 107.743L703.317 119.057ZM707.31 109.5V73.5H691.31V109.5H707.31ZM707.31 73.5C707.31 69.7692 705.826 66.3622 703.042 63.8305L692.279 75.6695C692.074 75.4836 691.79 75.1476 691.575 74.6594C691.361 74.173 691.31 73.7494 691.31 73.5H707.31ZM703.317 64.0931C700.779 61.555 697.468 60.1 693.76 60.1V76.1C693.507 76.1 693.14 76.0482 692.743 75.8802C692.352 75.7147 692.107 75.5108 692.003 75.4068L703.317 64.0931ZM693.76 60.1H690.61V76.1H693.76V60.1ZM690.61 60.1C686.902 60.1 683.591 61.555 681.053 64.0931L692.367 75.4068C692.263 75.5108 692.019 75.7147 691.627 75.8802C691.23 76.0482 690.863 76.1 690.61 76.1V60.1ZM681.053 64.0931C678.455 66.6915 677.21 70.0211 677.21 73.5H693.21C693.21 73.6517 693.182 73.9866 693.013 74.4086C692.84 74.84 692.594 75.1801 692.367 75.4069L681.053 64.0931ZM677.21 73.5V109.5H693.21V73.5H677.21ZM677.21 109.5C677.21 112.97 678.439 116.194 680.791 118.781L692.63 108.019C692.751 108.152 692.923 108.392 693.052 108.728C693.181 109.063 693.21 109.344 693.21 109.5H677.21ZM681.329 119.32C683.916 121.672 687.14 122.9 690.61 122.9V106.9C690.766 106.9 691.047 106.929 691.382 107.058C691.718 107.187 691.958 107.359 692.092 107.48L681.329 119.32ZM720.887 129H712.887V137H720.887V129ZM720.887 54V46H712.887V54H720.887ZM759.887 57.3L754.1 62.8238L754.228 62.9584L754.363 63.0868L759.887 57.3ZM763.187 81.3L761.443 89.1075L771.187 91.2844V81.3H763.187ZM749.087 78.15H741.087V84.56L747.342 85.9575L749.087 78.15ZM747.437 69.75L741.517 75.1314L741.645 75.2722L741.78 75.4069L747.437 69.75ZM734.987 68.1V60.1H726.987V68.1H734.987ZM734.987 129V137H742.987V129H734.987ZM728.887 129V54H712.887V129H728.887ZM720.887 62H752.237V46H720.887V62ZM752.237 62C753.017 62 753.486 62.1806 754.1 62.8238L765.674 51.7762C762.088 48.0194 757.457 46 752.237 46V62ZM754.363 63.0868C755.006 63.7008 755.187 64.1702 755.187 64.95H771.187C771.187 59.7298 769.167 55.0992 765.411 51.5132L754.363 63.0868ZM755.187 64.95V81.3H771.187V64.95H755.187ZM764.931 73.4925L750.831 70.3425L747.342 85.9575L761.443 89.1075L764.931 73.4925ZM757.087 78.15V73.65H741.087V78.15H757.087ZM757.087 73.65C757.087 69.942 755.632 66.6313 753.094 64.0931L741.78 75.4069C741.676 75.3029 741.472 75.0584 741.306 74.6671C741.138 74.2701 741.087 73.9028 741.087 73.65H757.087ZM753.356 64.3686C750.825 61.5837 747.417 60.1 743.687 60.1V76.1C743.437 76.1 743.014 76.049 742.527 75.835C742.039 75.6202 741.703 75.3359 741.517 75.1314L753.356 64.3686ZM743.687 60.1H734.987V76.1H743.687V60.1ZM726.987 68.1V129H742.987V68.1H726.987ZM734.987 121H720.887V137H734.987V121ZM799.7 125.85L805.357 120.193L799.7 125.85ZM796.55 98.55L798.392 90.7649L788.55 88.4367V98.55H796.55ZM810.5 101.85H818.5V95.5217L812.342 94.0649L810.5 101.85ZM812 113.55L806.081 118.931L806.337 119.213L806.619 119.47L812 113.55ZM836.75 113.55L842.131 119.47L842.272 119.341L842.407 119.207L836.75 113.55ZM836.75 79.5L831.093 85.1569L831.228 85.2915L831.369 85.4195L836.75 79.5ZM819.2 77.85L811.396 76.0879L809.192 85.85H819.2V77.85ZM822.35 63.9V55.9H815.955L814.546 62.1379L822.35 63.9ZM836.75 62.4L842.131 68.3195L842.272 68.1915L842.407 68.0569L836.75 62.4ZM836.75 39.6L831.093 45.2568L831.228 45.3915L831.369 45.5195L836.75 39.6ZM815.45 37.95H807.45V45.95H815.45V37.95ZM815.45 37.8H823.45V29.2082L814.88 29.8203L815.45 37.8ZM811.85 39.6L805.93 34.2186L805.917 34.2334L805.904 34.2483L811.85 39.6ZM810.5 57.45L808.738 65.2535L818.5 67.4579V57.45H810.5ZM796.55 54.3H788.55V60.695L794.788 62.1035L796.55 54.3ZM799.7 27.15L805.357 32.8069V32.8068L799.7 27.15ZM849.05 27.15L843.393 32.8068V32.8069L849.05 27.15ZM851.6 70.95L844.082 68.216L843.087 70.95L844.082 73.6839L851.6 70.95ZM807.35 121C806.448 121 805.94 120.776 805.357 120.193L794.043 131.507C797.66 135.124 802.253 137 807.35 137V121ZM805.357 120.193C804.774 119.61 804.55 119.102 804.55 118.2H788.55C788.55 123.298 790.426 127.89 794.043 131.507L805.357 120.193ZM804.55 118.2V98.55H788.55V118.2H804.55ZM794.708 106.335L808.658 109.635L812.342 94.0649L798.392 90.7649L794.708 106.335ZM802.5 101.85V109.65H818.5V101.85H802.5ZM802.5 109.65C802.5 113.12 803.728 116.344 806.081 118.931L817.919 108.169C818.041 108.302 818.213 108.542 818.342 108.878C818.471 109.213 818.5 109.494 818.5 109.65H802.5ZM806.619 119.47C809.206 121.822 812.43 123.05 815.9 123.05V107.05C816.056 107.05 816.337 107.079 816.672 107.208C817.008 107.337 817.248 107.509 817.381 107.63L806.619 119.47ZM815.9 123.05H833V107.05H815.9V123.05ZM833 123.05C836.521 123.05 839.658 121.718 842.131 119.47L831.369 107.63C831.452 107.555 831.667 107.387 832.016 107.247C832.374 107.104 832.724 107.05 833 107.05V123.05ZM842.407 119.207C844.945 116.669 846.4 113.358 846.4 109.65H830.4C830.4 109.397 830.452 109.03 830.62 108.633C830.785 108.242 830.989 107.997 831.093 107.893L842.407 119.207ZM846.4 109.65V83.25H830.4V109.65H846.4ZM846.4 83.25C846.4 79.5192 844.916 76.1122 842.131 73.5805L831.369 85.4195C831.164 85.2336 830.88 84.8976 830.665 84.4094C830.451 83.923 830.4 83.4994 830.4 83.25H846.4ZM842.407 73.8431C839.989 71.4256 836.767 69.85 833 69.85V85.85C832.619 85.85 832.182 85.7682 831.766 85.585C831.365 85.409 831.148 85.2116 831.093 85.1569L842.407 73.8431ZM833 69.85H819.2V85.85H833V69.85ZM827.004 79.6121L830.154 65.6621L814.546 62.1379L811.396 76.0879L827.004 79.6121ZM822.35 71.9H833V55.9H822.35V71.9ZM833 71.9C836.521 71.9 839.658 70.5677 842.131 68.3195L831.369 56.4805C831.452 56.4047 831.667 56.2371 832.016 56.0972C832.374 55.9542 832.724 55.9 833 55.9V71.9ZM842.407 68.0569C844.945 65.5187 846.4 62.208 846.4 58.5H830.4C830.4 58.2472 830.452 57.8799 830.62 57.4829C830.785 57.0916 830.989 56.8471 831.093 56.7431L842.407 68.0569ZM846.4 58.5V43.2H830.4V58.5H846.4ZM846.4 43.2C846.4 39.3936 844.783 36.091 842.131 33.6805L831.369 45.5195C831.221 45.3852 830.943 45.0805 830.715 44.5832C830.482 44.0746 830.4 43.5794 830.4 43.2H846.4ZM842.407 33.9431C839.989 31.5256 836.767 29.95 833 29.95V45.95C832.619 45.95 832.182 45.8682 831.766 45.685C831.365 45.5089 831.148 45.3115 831.093 45.2568L842.407 33.9431ZM833 29.95H815.45V45.95H833V29.95ZM823.45 37.95V37.8H807.45V37.95H823.45ZM814.88 29.8203C811.299 30.0761 808.223 31.6965 805.93 34.2186L817.77 44.9814C817.677 45.0834 817.452 45.2934 817.078 45.4804C816.696 45.6714 816.318 45.7584 816.02 45.7797L814.88 29.8203ZM805.904 34.2483C803.624 36.7815 802.5 39.9118 802.5 43.2H818.5C818.5 43.3706 818.47 43.6813 818.328 44.059C818.185 44.4418 817.982 44.7457 817.796 44.9517L805.904 34.2483ZM802.5 43.2V57.45H818.5V43.2H802.5ZM812.262 49.6465L798.312 46.4965L794.788 62.1035L808.738 65.2535L812.262 49.6465ZM804.55 54.3V34.65H788.55V54.3H804.55ZM804.55 34.65C804.55 33.9283 804.717 33.447 805.357 32.8069L794.043 21.4931C790.483 25.053 788.55 29.5717 788.55 34.65H804.55ZM805.357 32.8068C805.94 32.2242 806.448 32 807.35 32V16C802.253 16 797.66 17.8758 794.043 21.4931L805.357 32.8068ZM807.35 32H841.55V16H807.35V32ZM841.55 32C842.272 32 842.753 32.1667 843.393 32.8068L854.707 21.4931C851.147 17.9333 846.628 16 841.55 16V32ZM843.393 32.8069C844.033 33.447 844.2 33.9283 844.2 34.65H860.2C860.2 29.5717 858.267 25.053 854.707 21.4931L843.393 32.8069ZM844.2 34.65V67.05H860.2V34.65H844.2ZM844.2 67.05C844.2 67.8675 844.088 68.1999 844.082 68.216L859.118 73.6839C859.912 71.5001 860.2 69.2325 860.2 67.05H844.2ZM844.082 73.6839C844.107 73.7547 844.2 74.0545 844.2 74.7H860.2C860.2 72.5455 859.893 70.3453 859.118 68.216L844.082 73.6839ZM844.2 74.7V118.2H860.2V74.7H844.2ZM844.2 118.2C844.2 119.102 843.976 119.61 843.393 120.193L854.707 131.507C858.324 127.89 860.2 123.298 860.2 118.2H844.2ZM843.393 120.193C842.753 120.833 842.272 121 841.55 121V137C846.628 137 851.147 135.067 854.707 131.507L843.393 120.193ZM841.55 121H807.35V137H841.55V121Z" fill="#17161A" mask="url(#path-1-outside-1_1_117)"/>
<defs>
<linearGradient id="paint0_linear_1_117" x1="65.5" y1="-171" x2="862" y2="178.5" gradientUnits="userSpaceOnUse">
<stop stop-color="#9FF4FF"/>
<stop offset="1" stop-color="white"/>
</linearGradient>
</defs>
</svg>
