<svg width="80" height="81" viewBox="0 0 80 81" fill="none" xmlns="http://www.w3.org/2000/svg">
<g clip-path="url(#clip0_1_109)">
<path d="M40 50.3885C45.5228 50.3885 50 45.9114 50 40.3885C50 34.8657 45.5228 30.3885 40 30.3885C34.4772 30.3885 30 34.8657 30 40.3885C30 45.9114 34.4772 50.3885 40 50.3885Z" stroke="#938ED4" stroke-width="7" stroke-linecap="round" stroke-linejoin="round"/>
<path d="M64.6667 50.3886C64.2229 51.394 64.0906 52.5092 64.2866 53.5905C64.4827 54.6719 64.9982 55.6697 65.7667 56.4553L65.9667 56.6552C66.5865 57.2744 67.0782 58.0097 67.4137 58.819C67.7492 59.6283 67.9219 60.4958 67.9219 61.3719C67.9219 62.248 67.7492 63.1155 67.4137 63.9249C67.0782 64.7342 66.5865 65.4694 65.9667 66.0886C65.3475 66.7084 64.6122 67.2002 63.8029 67.5356C62.9936 67.8711 62.1261 68.0438 61.25 68.0438C60.3739 68.0438 59.5064 67.8711 58.6971 67.5356C57.8877 67.2002 57.1525 66.7084 56.5333 66.0886L56.3333 65.8886C55.5477 65.1201 54.5499 64.6046 53.4686 64.4086C52.3873 64.2125 51.272 64.3449 50.2667 64.7886C49.2808 65.2111 48.4399 65.9127 47.8477 66.807C47.2554 67.7013 46.9376 68.7493 46.9333 69.8219V70.3886C46.9333 72.1567 46.2309 73.8524 44.9807 75.1026C43.7305 76.3529 42.0348 77.0553 40.2667 77.0553C38.4985 77.0553 36.8029 76.3529 35.5526 75.1026C34.3024 73.8524 33.6 72.1567 33.6 70.3886V70.0886C33.5742 68.9853 33.2171 67.9152 32.575 67.0176C31.933 66.1199 31.0358 65.4362 30 65.0553C28.9946 64.6115 27.8793 64.4792 26.798 64.6752C25.7167 64.8713 24.7189 65.3868 23.9333 66.1552L23.7333 66.3553C23.1142 66.9751 22.3789 67.4668 21.5696 67.8023C20.7603 68.1378 19.8928 68.3105 19.0167 68.3105C18.1406 68.3105 17.273 68.1378 16.4637 67.8023C15.6544 67.4668 14.9191 66.9751 14.3 66.3553C13.6802 65.7361 13.1884 65.0008 12.8529 64.1915C12.5174 63.3822 12.3447 62.5147 12.3447 61.6386C12.3447 60.7625 12.5174 59.895 12.8529 59.0856C13.1884 58.2763 13.6802 57.5411 14.3 56.9219L14.5 56.7219C15.2684 55.9363 15.7839 54.9385 15.98 53.8572C16.1761 52.7759 16.0437 51.6606 15.6 50.6553C15.1775 49.6694 14.4758 48.8285 13.5815 48.2363C12.6872 47.644 11.6393 47.3262 10.5667 47.3219H9.99999C8.23188 47.3219 6.53619 46.6195 5.28595 45.3693C4.03571 44.1191 3.33333 42.4234 3.33333 40.6553C3.33333 38.8871 4.03571 37.1915 5.28595 35.9412C6.53619 34.691 8.23188 33.9886 9.99999 33.9886H10.3C11.4033 33.9628 12.4733 33.6056 13.371 32.9636C14.2686 32.3216 14.9524 31.4244 15.3333 30.3886C15.777 29.3832 15.9094 28.2679 15.7133 27.1866C15.5173 26.1053 15.0018 25.1075 14.2333 24.3219L14.0333 24.1219C13.4135 23.5028 12.9218 22.7675 12.5863 21.9582C12.2508 21.1489 12.0781 20.2814 12.0781 19.4053C12.0781 18.5292 12.2508 17.6616 12.5863 16.8523C12.9218 16.043 13.4135 15.3077 14.0333 14.6886C14.6525 14.0687 15.3877 13.577 16.1971 13.2415C17.0064 12.906 17.8739 12.7333 18.75 12.7333C19.6261 12.7333 20.4936 12.906 21.3029 13.2415C22.1122 13.577 22.8475 14.0687 23.4667 14.6886L23.6667 14.8886C24.4523 15.657 25.45 16.1725 26.5314 16.3686C27.6127 16.5647 28.7279 16.4323 29.7333 15.9886H30C30.9859 15.566 31.8267 14.8644 32.419 13.9701C33.0112 13.0758 33.329 12.0279 33.3333 10.9553V10.3886C33.3333 8.62048 34.0357 6.92479 35.2859 5.67455C36.5362 4.4243 38.2319 3.72192 40 3.72192C41.7681 3.72192 43.4638 4.4243 44.714 5.67455C45.9643 6.92479 46.6667 8.62048 46.6667 10.3886V10.6886C46.6709 11.7612 46.9888 12.8092 47.581 13.7035C48.1733 14.5978 49.0141 15.2994 50 15.7219C51.0054 16.1656 52.1206 16.298 53.202 16.1019C54.2833 15.9059 55.2811 15.3904 56.0667 14.6219L56.2667 14.4219C56.8858 13.8021 57.6211 13.3104 58.4304 12.9749C59.2397 12.6394 60.1072 12.4667 60.9833 12.4667C61.8594 12.4667 62.7269 12.6394 63.5363 12.9749C64.3456 13.3104 65.0808 13.8021 65.7 14.4219C66.3198 15.0411 66.8116 15.7763 67.1471 16.5857C67.4825 17.395 67.6552 18.2625 67.6552 19.1386C67.6552 20.0147 67.4825 20.8822 67.1471 21.6915C66.8116 22.5008 66.3198 23.2361 65.7 23.8553L65.5 24.0553C64.7315 24.8409 64.216 25.8386 64.02 26.92C63.8239 28.0013 63.9563 29.1165 64.4 30.1219V30.3886C64.8225 31.3745 65.5241 32.2153 66.4184 32.8076C67.3127 33.3998 68.3607 33.7176 69.4333 33.7219H70C71.7681 33.7219 73.4638 34.4243 74.714 35.6745C75.9643 36.9248 76.6667 38.6205 76.6667 40.3886C76.6667 42.1567 75.9643 43.8524 74.714 45.1026C73.4638 46.3529 71.7681 47.0553 70 47.0553H69.7C68.6274 47.0595 67.5794 47.3774 66.6851 47.9696C65.7908 48.5619 65.0892 49.4027 64.6667 50.3886Z" stroke="#938ED4" stroke-width="7" stroke-linecap="round" stroke-linejoin="round"/>
</g>
<defs>
<clipPath id="clip0_1_109">
<rect width="80" height="80" fill="white" transform="translate(0 0.38855)"/>
</clipPath>
</defs>
</svg>
